<mxfile host="Electron" modified="2023-04-15T11:56:37.408Z" agent="Mozilla/5.0 (Windows NT 10.0; Win64; x64) AppleWebKit/537.36 (KHTML, like Gecko) draw.io/21.1.2 Chrome/106.0.5249.199 Electron/21.4.3 Safari/537.36" etag="Oxgvd3tzKxhYxZw2L1-p" version="21.1.2" type="device">
  <diagram id="iFA7WSP7PmwG47qbFd6f" name="Page-1">
    <mxGraphModel dx="1418" dy="818" grid="1" gridSize="10" guides="1" tooltips="1" connect="1" arrows="1" fold="1" page="1" pageScale="1" pageWidth="1100" pageHeight="850" math="0" shadow="0">
      <root>
        <mxCell id="0" />
        <mxCell id="1" parent="0" />
        <mxCell id="pha9NR9HZwjInYKIv3SI-17" value="" style="sketch=0;outlineConnect=0;gradientColor=none;html=1;whiteSpace=wrap;fontSize=12;fontStyle=0;shape=mxgraph.aws4.group;grIcon=mxgraph.aws4.group_on_premise;strokeColor=#858B94;fillColor=none;verticalAlign=top;align=left;spacingLeft=30;fontColor=#858B94;dashed=0;" parent="1" vertex="1">
          <mxGeometry x="40" y="40" width="160" height="600" as="geometry" />
        </mxCell>
        <mxCell id="pha9NR9HZwjInYKIv3SI-1" value="AWS Cloud" style="points=[[0,0],[0.25,0],[0.5,0],[0.75,0],[1,0],[1,0.25],[1,0.5],[1,0.75],[1,1],[0.75,1],[0.5,1],[0.25,1],[0,1],[0,0.75],[0,0.5],[0,0.25]];outlineConnect=0;gradientColor=none;html=1;whiteSpace=wrap;fontSize=12;fontStyle=0;container=1;pointerEvents=0;collapsible=0;recursiveResize=0;shape=mxgraph.aws4.group;grIcon=mxgraph.aws4.group_aws_cloud_alt;strokeColor=#232F3E;fillColor=none;verticalAlign=top;align=left;spacingLeft=30;fontColor=#232F3E;dashed=0;" parent="1" vertex="1">
          <mxGeometry x="520" y="40" width="520" height="600" as="geometry" />
        </mxCell>
        <mxCell id="A5goIySiUKO01Ep0x6ss-1" value="commit-certificate" style="sketch=0;outlineConnect=0;fontColor=#232F3E;gradientColor=none;fillColor=#000099;strokeColor=none;dashed=0;verticalLabelPosition=bottom;verticalAlign=top;align=center;html=1;fontSize=12;fontStyle=0;aspect=fixed;pointerEvents=1;shape=mxgraph.aws4.lambda_function;" parent="pha9NR9HZwjInYKIv3SI-1" vertex="1">
          <mxGeometry x="191.61999999999995" y="369" width="60" height="60" as="geometry" />
        </mxCell>
        <mxCell id="A5goIySiUKO01Ep0x6ss-3" value="job-execution-terminal" style="sketch=0;outlineConnect=0;fontColor=#232F3E;gradientColor=none;fillColor=#000099;strokeColor=none;dashed=0;verticalLabelPosition=bottom;verticalAlign=top;align=center;html=1;fontSize=12;fontStyle=0;aspect=fixed;pointerEvents=1;shape=mxgraph.aws4.lambda_function;" parent="pha9NR9HZwjInYKIv3SI-1" vertex="1">
          <mxGeometry x="191.61999999999995" y="479" width="60" height="60" as="geometry" />
        </mxCell>
        <mxCell id="A5goIySiUKO01Ep0x6ss-4" value="create-certificate" style="sketch=0;outlineConnect=0;fontColor=#232F3E;gradientColor=none;fillColor=#000099;strokeColor=none;dashed=0;verticalLabelPosition=bottom;verticalAlign=top;align=center;html=1;fontSize=12;fontStyle=0;aspect=fixed;pointerEvents=1;shape=mxgraph.aws4.lambda_function;" parent="pha9NR9HZwjInYKIv3SI-1" vertex="1">
          <mxGeometry x="191.61999999999995" y="155.15" width="60" height="60" as="geometry" />
        </mxCell>
        <mxCell id="A5goIySiUKO01Ep0x6ss-5" value="New&lt;br&gt;Certificate" style="sketch=0;outlineConnect=0;fontColor=#232F3E;gradientColor=none;fillColor=#3F8624;strokeColor=none;dashed=0;verticalLabelPosition=bottom;verticalAlign=top;align=center;html=1;fontSize=12;fontStyle=0;aspect=fixed;pointerEvents=1;shape=mxgraph.aws4.certificate_manager;" parent="pha9NR9HZwjInYKIv3SI-1" vertex="1">
          <mxGeometry x="447.9299999999999" y="170.02" width="37.63" height="49.75" as="geometry" />
        </mxCell>
        <mxCell id="A5goIySiUKO01Ep0x6ss-6" value="AWS IoT&lt;br&gt;Core" style="sketch=0;points=[[0,0,0],[0.25,0,0],[0.5,0,0],[0.75,0,0],[1,0,0],[0,1,0],[0.25,1,0],[0.5,1,0],[0.75,1,0],[1,1,0],[0,0.25,0],[0,0.5,0],[0,0.75,0],[1,0.25,0],[1,0.5,0],[1,0.75,0]];outlineConnect=0;fontColor=#232F3E;gradientColor=#60A337;gradientDirection=north;fillColor=#277116;strokeColor=#ffffff;dashed=0;verticalLabelPosition=bottom;verticalAlign=top;align=center;html=1;fontSize=12;fontStyle=0;aspect=fixed;shape=mxgraph.aws4.resourceIcon;resIcon=mxgraph.aws4.iot_core;" parent="pha9NR9HZwjInYKIv3SI-1" vertex="1">
          <mxGeometry x="321.61999999999995" y="95.9" width="78" height="78" as="geometry" />
        </mxCell>
        <mxCell id="A5goIySiUKO01Ep0x6ss-7" value="AWS Private&lt;br&gt;Certificate Authority" style="sketch=0;points=[[0,0,0],[0.25,0,0],[0.5,0,0],[0.75,0,0],[1,0,0],[0,1,0],[0.25,1,0],[0.5,1,0],[0.75,1,0],[1,1,0],[0,0.25,0],[0,0.5,0],[0,0.75,0],[1,0.25,0],[1,0.5,0],[1,0.75,0]];outlineConnect=0;fontColor=#232F3E;gradientColor=#F54749;gradientDirection=north;fillColor=#C7131F;strokeColor=#ffffff;dashed=0;verticalLabelPosition=bottom;verticalAlign=top;align=center;html=1;fontSize=12;fontStyle=0;aspect=fixed;shape=mxgraph.aws4.resourceIcon;resIcon=mxgraph.aws4.certificate_manager_3;" parent="pha9NR9HZwjInYKIv3SI-1" vertex="1">
          <mxGeometry x="321.61999999999995" y="215.9" width="78" height="78" as="geometry" />
        </mxCell>
        <mxCell id="A5goIySiUKO01Ep0x6ss-8" value="" style="endArrow=classic;html=1;rounded=0;exitX=1;exitY=0.75;exitDx=0;exitDy=0;exitPerimeter=0;dashed=1;" parent="pha9NR9HZwjInYKIv3SI-1" source="A5goIySiUKO01Ep0x6ss-6" target="A5goIySiUKO01Ep0x6ss-5" edge="1">
          <mxGeometry width="50" height="50" relative="1" as="geometry">
            <mxPoint x="-358.38" y="270.14" as="sourcePoint" />
            <mxPoint x="-308.38" y="220.14000000000001" as="targetPoint" />
          </mxGeometry>
        </mxCell>
        <mxCell id="A5goIySiUKO01Ep0x6ss-9" value="" style="endArrow=classic;html=1;rounded=0;dashed=1;" parent="pha9NR9HZwjInYKIv3SI-1" source="A5goIySiUKO01Ep0x6ss-7" target="A5goIySiUKO01Ep0x6ss-5" edge="1">
          <mxGeometry width="50" height="50" relative="1" as="geometry">
            <mxPoint x="-358.38" y="270.14" as="sourcePoint" />
            <mxPoint x="-308.38" y="220.14000000000001" as="targetPoint" />
          </mxGeometry>
        </mxCell>
        <mxCell id="A5goIySiUKO01Ep0x6ss-10" value="" style="edgeStyle=orthogonalEdgeStyle;rounded=0;orthogonalLoop=1;jettySize=auto;html=1;" parent="pha9NR9HZwjInYKIv3SI-1" source="A5goIySiUKO01Ep0x6ss-11" target="A5goIySiUKO01Ep0x6ss-4" edge="1">
          <mxGeometry relative="1" as="geometry" />
        </mxCell>
        <mxCell id="A5goIySiUKO01Ep0x6ss-11" value="create-certificate" style="sketch=0;outlineConnect=0;fontColor=#232F3E;gradientColor=none;fillColor=#000099;strokeColor=none;dashed=0;verticalLabelPosition=bottom;verticalAlign=top;align=center;html=1;fontSize=12;fontStyle=0;aspect=fixed;pointerEvents=1;shape=mxgraph.aws4.rule;" parent="pha9NR9HZwjInYKIv3SI-1" vertex="1">
          <mxGeometry x="51.61999999999995" y="146.15" width="46" height="78" as="geometry" />
        </mxCell>
        <mxCell id="A5goIySiUKO01Ep0x6ss-12" value="" style="endArrow=classic;html=1;rounded=0;entryX=0;entryY=0.75;entryDx=0;entryDy=0;entryPerimeter=0;dashed=1;" parent="pha9NR9HZwjInYKIv3SI-1" source="A5goIySiUKO01Ep0x6ss-4" target="A5goIySiUKO01Ep0x6ss-6" edge="1">
          <mxGeometry width="50" height="50" relative="1" as="geometry">
            <mxPoint x="-478.38" y="365.9" as="sourcePoint" />
            <mxPoint x="-428.38" y="315.9" as="targetPoint" />
          </mxGeometry>
        </mxCell>
        <mxCell id="A5goIySiUKO01Ep0x6ss-13" value="" style="edgeStyle=orthogonalEdgeStyle;rounded=0;orthogonalLoop=1;jettySize=auto;html=1;" parent="pha9NR9HZwjInYKIv3SI-1" source="A5goIySiUKO01Ep0x6ss-14" target="A5goIySiUKO01Ep0x6ss-1" edge="1">
          <mxGeometry relative="1" as="geometry" />
        </mxCell>
        <mxCell id="A5goIySiUKO01Ep0x6ss-14" value="commit-certificate" style="sketch=0;outlineConnect=0;fontColor=#232F3E;gradientColor=none;fillColor=#000099;strokeColor=none;dashed=0;verticalLabelPosition=bottom;verticalAlign=top;align=center;html=1;fontSize=12;fontStyle=0;aspect=fixed;pointerEvents=1;shape=mxgraph.aws4.rule;" parent="pha9NR9HZwjInYKIv3SI-1" vertex="1">
          <mxGeometry x="51.61999999999995" y="360" width="46" height="78" as="geometry" />
        </mxCell>
        <mxCell id="A5goIySiUKO01Ep0x6ss-15" value="" style="endArrow=classic;html=1;rounded=0;entryX=0;entryY=0.25;entryDx=0;entryDy=0;entryPerimeter=0;dashed=1;" parent="pha9NR9HZwjInYKIv3SI-1" source="A5goIySiUKO01Ep0x6ss-4" target="A5goIySiUKO01Ep0x6ss-7" edge="1">
          <mxGeometry width="50" height="50" relative="1" as="geometry">
            <mxPoint x="-478.38" y="365.9" as="sourcePoint" />
            <mxPoint x="-428.38" y="315.9" as="targetPoint" />
          </mxGeometry>
        </mxCell>
        <mxCell id="A5goIySiUKO01Ep0x6ss-16" value="" style="edgeStyle=orthogonalEdgeStyle;rounded=0;orthogonalLoop=1;jettySize=auto;html=1;" parent="pha9NR9HZwjInYKIv3SI-1" source="A5goIySiUKO01Ep0x6ss-17" target="A5goIySiUKO01Ep0x6ss-3" edge="1">
          <mxGeometry relative="1" as="geometry" />
        </mxCell>
        <mxCell id="A5goIySiUKO01Ep0x6ss-17" value="job-execution-terminal" style="sketch=0;outlineConnect=0;fontColor=#232F3E;gradientColor=none;fillColor=#000099;strokeColor=none;dashed=0;verticalLabelPosition=bottom;verticalAlign=top;align=center;html=1;fontSize=12;fontStyle=0;aspect=fixed;pointerEvents=1;shape=mxgraph.aws4.rule;" parent="pha9NR9HZwjInYKIv3SI-1" vertex="1">
          <mxGeometry x="51.61999999999995" y="470" width="46" height="78" as="geometry" />
        </mxCell>
        <mxCell id="A5goIySiUKO01Ep0x6ss-2" value="" style="edgeStyle=orthogonalEdgeStyle;rounded=0;orthogonalLoop=1;jettySize=auto;html=1;" parent="pha9NR9HZwjInYKIv3SI-1" source="A5goIySiUKO01Ep0x6ss-3" edge="1">
          <mxGeometry relative="1" as="geometry">
            <mxPoint x="321.6199999999999" y="509" as="targetPoint" />
          </mxGeometry>
        </mxCell>
        <mxCell id="A5goIySiUKO01Ep0x6ss-19" value="&lt;span style=&quot;background-color: rgb(255 , 255 , 255)&quot;&gt;IoT Policy&lt;/span&gt;" style="sketch=0;outlineConnect=0;fontColor=#232F3E;gradientColor=none;fillColor=#3F8624;strokeColor=none;dashed=0;verticalLabelPosition=bottom;verticalAlign=top;align=center;html=1;fontSize=12;fontStyle=0;aspect=fixed;pointerEvents=1;shape=mxgraph.aws4.policy;labelBackgroundColor=#E6E6E6;" parent="pha9NR9HZwjInYKIv3SI-1" vertex="1">
          <mxGeometry x="443.6100000000002" y="285.9" width="46.27" height="39.75" as="geometry" />
        </mxCell>
        <mxCell id="A5goIySiUKO01Ep0x6ss-20" value="" style="edgeStyle=orthogonalEdgeStyle;rounded=0;orthogonalLoop=1;jettySize=auto;html=1;" parent="pha9NR9HZwjInYKIv3SI-1" source="A5goIySiUKO01Ep0x6ss-19" edge="1">
          <mxGeometry relative="1" as="geometry">
            <mxPoint x="466.73999999999984" y="255.9" as="targetPoint" />
          </mxGeometry>
        </mxCell>
        <mxCell id="A5goIySiUKO01Ep0x6ss-21" value="Thing" style="sketch=0;outlineConnect=0;fontColor=#232F3E;gradientColor=none;fillColor=#3F8624;strokeColor=none;dashed=0;verticalLabelPosition=bottom;verticalAlign=top;align=center;html=1;fontSize=12;fontStyle=0;aspect=fixed;pointerEvents=1;shape=mxgraph.aws4.iot_thing_freertos_device;labelBackgroundColor=#FFFFFF;" parent="pha9NR9HZwjInYKIv3SI-1" vertex="1">
          <mxGeometry x="441.86999999999995" y="70.00000000000003" width="49.75" height="49.75" as="geometry" />
        </mxCell>
        <mxCell id="A5goIySiUKO01Ep0x6ss-22" value="" style="edgeStyle=orthogonalEdgeStyle;rounded=0;orthogonalLoop=1;jettySize=auto;html=1;" parent="pha9NR9HZwjInYKIv3SI-1" edge="1">
          <mxGeometry relative="1" as="geometry">
            <mxPoint x="467.00000000000006" y="139.50000000000014" as="targetPoint" />
            <mxPoint x="466.96999999999986" y="170.02344540407162" as="sourcePoint" />
          </mxGeometry>
        </mxCell>
        <mxCell id="A5goIySiUKO01Ep0x6ss-23" value="AWS IoT Jobs" style="sketch=0;outlineConnect=0;fontColor=#232F3E;gradientColor=none;fillColor=#3F8624;strokeColor=none;dashed=0;verticalLabelPosition=bottom;verticalAlign=top;align=center;html=1;fontSize=12;fontStyle=0;aspect=fixed;pointerEvents=1;shape=mxgraph.aws4.iot_device_jobs_resource;labelBackgroundColor=#FFFFFF;" parent="pha9NR9HZwjInYKIv3SI-1" vertex="1">
          <mxGeometry x="54.11" y="35" width="41.02" height="50" as="geometry" />
        </mxCell>
        <mxCell id="A5goIySiUKO01Ep0x6ss-24" value="" style="edgeStyle=orthogonalEdgeStyle;rounded=0;orthogonalLoop=1;jettySize=auto;html=1;" parent="pha9NR9HZwjInYKIv3SI-1" source="A5goIySiUKO01Ep0x6ss-25" edge="1">
          <mxGeometry relative="1" as="geometry">
            <mxPoint x="106.23999999999984" y="60" as="targetPoint" />
          </mxGeometry>
        </mxCell>
        <mxCell id="A5goIySiUKO01Ep0x6ss-25" value="Job Template" style="sketch=0;outlineConnect=0;fontColor=#232F3E;gradientColor=none;strokeColor=#000099;fillColor=#ffffff;dashed=0;verticalLabelPosition=bottom;verticalAlign=top;align=center;html=1;fontSize=12;fontStyle=0;aspect=fixed;shape=mxgraph.aws4.resourceIcon;resIcon=mxgraph.aws4.template;" parent="pha9NR9HZwjInYKIv3SI-1" vertex="1">
          <mxGeometry x="191.61999999999995" y="30" width="60" height="60" as="geometry" />
        </mxCell>
        <mxCell id="A5goIySiUKO01Ep0x6ss-38" value="AWS IoT Jobs" style="sketch=0;outlineConnect=0;fontColor=#232F3E;gradientColor=none;fillColor=#3F8624;strokeColor=none;dashed=0;verticalLabelPosition=bottom;verticalAlign=top;align=center;html=1;fontSize=12;fontStyle=0;aspect=fixed;pointerEvents=1;shape=mxgraph.aws4.iot_device_jobs_resource;labelBackgroundColor=#FFFFFF;" parent="pha9NR9HZwjInYKIv3SI-1" vertex="1">
          <mxGeometry x="54.110000000000014" y="275" width="41.02" height="50" as="geometry" />
        </mxCell>
        <mxCell id="aKGIf1QxFjFIuhPJq4I2-2" value="SNS Topic" style="sketch=0;outlineConnect=0;fontColor=#232F3E;gradientColor=none;fillColor=#000099;strokeColor=none;dashed=0;verticalLabelPosition=bottom;verticalAlign=top;align=center;html=1;fontSize=12;fontStyle=0;aspect=fixed;pointerEvents=1;shape=mxgraph.aws4.topic;" vertex="1" parent="pha9NR9HZwjInYKIv3SI-1">
          <mxGeometry x="321.62" y="475.5" width="78" height="67" as="geometry" />
        </mxCell>
        <mxCell id="pha9NR9HZwjInYKIv3SI-8" value="Certificate Rotator&lt;br&gt;Component" style="sketch=0;outlineConnect=0;fontColor=#232F3E;gradientColor=none;fillColor=#000099;strokeColor=none;dashed=0;verticalLabelPosition=bottom;verticalAlign=top;align=center;html=1;fontSize=12;fontStyle=0;aspect=fixed;pointerEvents=1;shape=mxgraph.aws4.iot_greengrass_component;" parent="1" vertex="1">
          <mxGeometry x="81" y="362" width="78" height="78" as="geometry" />
        </mxCell>
        <mxCell id="pha9NR9HZwjInYKIv3SI-9" value="AWS IoT&lt;br&gt;Greengrass" style="sketch=0;points=[[0,0,0],[0.25,0,0],[0.5,0,0],[0.75,0,0],[1,0,0],[0,1,0],[0.25,1,0],[0.5,1,0],[0.75,1,0],[1,1,0],[0,0.25,0],[0,0.5,0],[0,0.75,0],[1,0.25,0],[1,0.5,0],[1,0.75,0]];outlineConnect=0;fontColor=#232F3E;gradientColor=#60A337;gradientDirection=north;fillColor=#277116;strokeColor=#ffffff;dashed=0;verticalLabelPosition=bottom;verticalAlign=top;align=center;html=1;fontSize=12;fontStyle=0;aspect=fixed;shape=mxgraph.aws4.resourceIcon;resIcon=mxgraph.aws4.greengrass;" parent="1" vertex="1">
          <mxGeometry x="81" y="70" width="78" height="78" as="geometry" />
        </mxCell>
        <mxCell id="pha9NR9HZwjInYKIv3SI-18" value="" style="endArrow=classic;html=1;rounded=0;" parent="1" edge="1">
          <mxGeometry width="50" height="50" relative="1" as="geometry">
            <mxPoint x="210" y="220" as="sourcePoint" />
            <mxPoint x="510" y="220" as="targetPoint" />
          </mxGeometry>
        </mxCell>
        <mxCell id="pha9NR9HZwjInYKIv3SI-19" value="" style="endArrow=classic;html=1;rounded=0;" parent="1" edge="1">
          <mxGeometry width="50" height="50" relative="1" as="geometry">
            <mxPoint x="510" y="260" as="sourcePoint" />
            <mxPoint x="210" y="260" as="targetPoint" />
          </mxGeometry>
        </mxCell>
        <mxCell id="pha9NR9HZwjInYKIv3SI-20" value="awslabs/things/&lt;span style=&quot;background-color: rgb(230 , 230 , 230)&quot;&gt;&lt;i&gt;thingName&lt;/i&gt;&lt;/span&gt;/certificate/create" style="text;html=1;strokeColor=none;fillColor=none;align=center;verticalAlign=middle;whiteSpace=wrap;rounded=0;" parent="1" vertex="1">
          <mxGeometry x="210" y="220" width="300" height="20" as="geometry" />
        </mxCell>
        <mxCell id="pha9NR9HZwjInYKIv3SI-21" value="awslabs/things/&lt;span style=&quot;background-color: rgb(230 , 230 , 230)&quot;&gt;&lt;i&gt;thingName&lt;/i&gt;&lt;/span&gt;/certificate/create/accepted" style="text;html=1;strokeColor=none;fillColor=none;align=center;verticalAlign=middle;whiteSpace=wrap;rounded=0;" parent="1" vertex="1">
          <mxGeometry x="210" y="240" width="300" height="20" as="geometry" />
        </mxCell>
        <mxCell id="pha9NR9HZwjInYKIv3SI-48" value="" style="endArrow=classic;html=1;rounded=0;" parent="1" edge="1">
          <mxGeometry width="50" height="50" relative="1" as="geometry">
            <mxPoint x="210" y="440" as="sourcePoint" />
            <mxPoint x="510" y="440" as="targetPoint" />
          </mxGeometry>
        </mxCell>
        <mxCell id="pha9NR9HZwjInYKIv3SI-49" value="" style="endArrow=classic;html=1;rounded=0;" parent="1" edge="1">
          <mxGeometry width="50" height="50" relative="1" as="geometry">
            <mxPoint x="510" y="480" as="sourcePoint" />
            <mxPoint x="210" y="480" as="targetPoint" />
          </mxGeometry>
        </mxCell>
        <mxCell id="pha9NR9HZwjInYKIv3SI-50" value="awslabs/things/&lt;span style=&quot;background-color: rgb(230 , 230 , 230)&quot;&gt;&lt;i&gt;thingName&lt;/i&gt;&lt;/span&gt;/certificate/commit" style="text;html=1;strokeColor=none;fillColor=none;align=center;verticalAlign=middle;whiteSpace=wrap;rounded=0;" parent="1" vertex="1">
          <mxGeometry x="210" y="440" width="300" height="20" as="geometry" />
        </mxCell>
        <mxCell id="pha9NR9HZwjInYKIv3SI-51" value="awslabs/things/&lt;span style=&quot;background-color: rgb(230 , 230 , 230)&quot;&gt;&lt;i&gt;thingName&lt;/i&gt;&lt;/span&gt;/certificate/commit/accepted" style="text;html=1;strokeColor=none;fillColor=none;align=center;verticalAlign=middle;whiteSpace=wrap;rounded=0;" parent="1" vertex="1">
          <mxGeometry x="210" y="460" width="300" height="20" as="geometry" />
        </mxCell>
        <mxCell id="pha9NR9HZwjInYKIv3SI-52" value="" style="endArrow=classic;html=1;rounded=0;" parent="1" edge="1">
          <mxGeometry width="50" height="50" relative="1" as="geometry">
            <mxPoint x="210" y="120" as="sourcePoint" />
            <mxPoint x="510" y="120" as="targetPoint" />
          </mxGeometry>
        </mxCell>
        <mxCell id="pha9NR9HZwjInYKIv3SI-53" value="" style="endArrow=classic;html=1;rounded=0;" parent="1" edge="1">
          <mxGeometry width="50" height="50" relative="1" as="geometry">
            <mxPoint x="510" y="160" as="sourcePoint" />
            <mxPoint x="210" y="160" as="targetPoint" />
          </mxGeometry>
        </mxCell>
        <mxCell id="pha9NR9HZwjInYKIv3SI-54" value="$aws/things/&lt;span style=&quot;background-color: rgb(230 , 230 , 230)&quot;&gt;&lt;i&gt;thingName&lt;/i&gt;&lt;/span&gt;/jobs/&lt;span style=&quot;background-color: rgb(230 , 230 , 230)&quot;&gt;&lt;i&gt;jobId&lt;/i&gt;&lt;/span&gt;/update" style="text;html=1;strokeColor=none;fillColor=none;align=center;verticalAlign=middle;whiteSpace=wrap;rounded=0;" parent="1" vertex="1">
          <mxGeometry x="210" y="120" width="300" height="20" as="geometry" />
        </mxCell>
        <mxCell id="pha9NR9HZwjInYKIv3SI-55" value="`$aws/things/&lt;span style=&quot;background-color: rgb(230, 230, 230);&quot;&gt;&lt;i&gt;thingName&lt;/i&gt;&lt;/span&gt;/jobs/&lt;span style=&quot;background-color: rgb(230, 230, 230);&quot;&gt;&lt;i&gt;jobId&lt;/i&gt;&lt;/span&gt;/update/accepted" style="text;html=1;strokeColor=none;fillColor=none;align=center;verticalAlign=middle;whiteSpace=wrap;rounded=0;" parent="1" vertex="1">
          <mxGeometry x="210" y="140" width="300" height="20" as="geometry" />
        </mxCell>
        <mxCell id="pha9NR9HZwjInYKIv3SI-56" value="" style="endArrow=classic;html=1;rounded=0;" parent="1" edge="1">
          <mxGeometry width="50" height="50" relative="1" as="geometry">
            <mxPoint x="210" y="550" as="sourcePoint" />
            <mxPoint x="510" y="550" as="targetPoint" />
          </mxGeometry>
        </mxCell>
        <mxCell id="pha9NR9HZwjInYKIv3SI-57" value="" style="endArrow=classic;html=1;rounded=0;" parent="1" edge="1">
          <mxGeometry width="50" height="50" relative="1" as="geometry">
            <mxPoint x="510" y="590" as="sourcePoint" />
            <mxPoint x="210" y="590" as="targetPoint" />
          </mxGeometry>
        </mxCell>
        <mxCell id="pha9NR9HZwjInYKIv3SI-58" value="$aws/things/&lt;span style=&quot;background-color: rgb(230 , 230 , 230)&quot;&gt;&lt;i&gt;thingName&lt;/i&gt;&lt;/span&gt;/jobs/&lt;span style=&quot;background-color: rgb(230 , 230 , 230)&quot;&gt;&lt;i&gt;jobId&lt;/i&gt;&lt;/span&gt;/update" style="text;html=1;strokeColor=none;fillColor=none;align=center;verticalAlign=middle;whiteSpace=wrap;rounded=0;" parent="1" vertex="1">
          <mxGeometry x="210" y="550" width="300" height="20" as="geometry" />
        </mxCell>
        <mxCell id="pha9NR9HZwjInYKIv3SI-59" value="$aws/things/&lt;span style=&quot;background-color: rgb(230 , 230 , 230)&quot;&gt;&lt;i&gt;thingName&lt;/i&gt;&lt;/span&gt;/jobs/&lt;span style=&quot;background-color: rgb(230 , 230 , 230)&quot;&gt;&lt;i&gt;jobId&lt;/i&gt;&lt;/span&gt;/update/accepted" style="text;html=1;strokeColor=none;fillColor=none;align=center;verticalAlign=middle;whiteSpace=wrap;rounded=0;" parent="1" vertex="1">
          <mxGeometry x="210" y="570" width="300" height="20" as="geometry" />
        </mxCell>
        <mxCell id="pha9NR9HZwjInYKIv3SI-61" value="" style="endArrow=classic;html=1;rounded=0;" parent="1" edge="1">
          <mxGeometry width="50" height="50" relative="1" as="geometry">
            <mxPoint x="510" y="100" as="sourcePoint" />
            <mxPoint x="210" y="100" as="targetPoint" />
          </mxGeometry>
        </mxCell>
        <mxCell id="pha9NR9HZwjInYKIv3SI-63" value="$aws/things/&lt;span style=&quot;background-color: rgb(230 , 230 , 230)&quot;&gt;&lt;i&gt;thingName&lt;/i&gt;&lt;/span&gt;/jobs/notify-next" style="text;html=1;strokeColor=none;fillColor=none;align=center;verticalAlign=middle;whiteSpace=wrap;rounded=0;" parent="1" vertex="1">
          <mxGeometry x="210" y="80" width="300" height="20" as="geometry" />
        </mxCell>
        <mxCell id="pha9NR9HZwjInYKIv3SI-64" value="IN_PROGRESS" style="text;html=1;strokeColor=none;fillColor=none;align=center;verticalAlign=middle;whiteSpace=wrap;rounded=0;labelBackgroundColor=#FFFFFF;" parent="1" vertex="1">
          <mxGeometry x="210" y="160" width="300" height="20" as="geometry" />
        </mxCell>
        <mxCell id="pha9NR9HZwjInYKIv3SI-65" value="SUCCEEDED" style="text;html=1;strokeColor=none;fillColor=none;align=center;verticalAlign=middle;whiteSpace=wrap;rounded=0;labelBackgroundColor=#FFFFFF;" parent="1" vertex="1">
          <mxGeometry x="210" y="590" width="300" height="20" as="geometry" />
        </mxCell>
        <mxCell id="pha9NR9HZwjInYKIv3SI-86" value="" style="shape=image;aspect=fixed;image=data:image/png,iVBORw0KGgoAAAANSUhEUgAAAgAAAAIACAYAAAD0eNT6AAAABmJLR0QA/wD/AP+gvaeTAAAgAElEQVR4nOzdd4AdZdk28Ot+Zk7b7G42vW0JECAh9CS0GDoihNAFFQWRklBEEcT+mtf3tb/yIYJkA4iiggQEJSAgvXckgoRQUnaTQHqy9eyemef+/lhCCKRsOefMmZnr94+S3TNzJTs7zz1PGwERlbQJ9ZpYXYbBXmvrUAcYCkf7i9UqAAMspD+AKoH2V5V+EMmIaD9VTYpKfxW4Cqnc/IhaLkBisz8BcoC0fPTPRHWDAL6KbhCRTlVphWq7iLYqZD0U62F0g1Gsh8g69WSDBVY6Ff1WLXkXqzBTvEL/2xBR70nQAYjibPjvmoek22WUTUi1wtZCMUpUq2FkpCqGAjIY0CFB5+wdWQXoKhGsguoyhSyDYJlRs8RTXapily2fXrk66JREccUCgKiQ5qgzunV9jW1PjIGjOwK6EyA7QbCTqu4ISCboiMHSdoG8C2AhVN+BwbuwZqHj5t5ZtLSqETPFBp2QKKpYABDlSd0fdYS2tu4Go7upYhwEu0GxF4B+QWcLI4V2flAcvGFg3oDYN9RifsPA8gU4Tfyg8xGFHQsAoh6aUK+JVdqyMyD7qth9IbIvVPcGpCzobHGgQE6Ad6D6ihh5Bb6+4pmKfy2fLm1BZyMKExYARNsyR52aNS3j4Oh+orI/gEkKjAXgBh2NNuMJMB/Ai6r6vHjyQsPq8vkcQiDaOhYARB8x5uo1lVk3PVkcHChiD1DFBAAVQeeinlOgSQQviTXPW+iz2UT706vPGdIcdC6iUsECgGJt8I2rKspymf1U9HAIJqti0seXyFFk+ADeAvC0ETycU32cqxAozlgAUKxUX6kZk26dDAdHAPZIhewJ/h7ElYXov8WahwA8bFL9nl58tmSDDkVULLzxUeRV/7ZlT3Htp6HmCIWdLJB00JmoFGm7iHlKgYfh6z8bL6h4PehERIXEAoAiZ/RNmrYdrZNV7FQoToBITdCZKIRUGyDyTwNzryTLHmbvAEUNCwCKhFHXNA0ySUyDyjQAh4Nr7ym/WkXxEBw71wruWXpu/7VBByLqKxYAFFoj65sGu2o+oyKnKOynOXmPisSH4HkB/ipq7lgyvd97QQci6g0WABQqO1zfMsyzeioEp0JxIAATdCaKNV8Ez6jijlwCd7z/lYpVQQci6i4WAFTyqq/UjFPecqxV80U+6VMJ8yF43qj+qdXtuI17DlCpYwFApWmmunUjmo62as6A6FS+NIfCRdtE5R6BvWXJwMoH+O4CKkUsAKikjJrdtIurzulW/S9z9j5FgULeE9i/KsxNS6eXvxZ0HqKNWABQ4AbfuKoibVOnGZWzVHFA0HmICkbwDKz+Ietnb1910dCWoONQvLEAoMDscGPTrp4nZyrkXIEOCDoPURE1A7hNfZm19MLyfwcdhuKJBQAV1fg5mmxZ3zLNqpwL6BFB5yEKnr5igBv81oo/L/2GtAedhuKDBQAVRd0fdYS2ts1Q0XMBHRJ0HqJSo5CVBnKDAPXcW4CKgQUAFVTdda37WGPPU+gXuQc/0fYptFMgc61vf73swv7PBZ2HoosFAOXfTDV1w1tOtIKvATgw6DhEoSV4Gqq/bnyv4m7MFBt0HIoWFgCUN+PnaLJ5betpCv0WBLsGnYcoQhaJ4BqTKL+eLyWifGEBQH02+MZVFWV++stW9TKBjAw6D1FUKWSFA5ktyc7fLD57wPqg81C4sQCgXqu+YcNA47uXWOhFAu0fdB6iuFDIeqNyDWzuNw0XVq0LOg+FEwsA6rFR1zQNchPOhT70qwKtCjoPUYy1ALhOHfsrvqKYeooFAHXbyPqmwQk4F/jQS/jET1RSWgD9vWvMzxedV74i6DAUDiwAaLuGXLuyvMxNX+DDXMGGn6iktQC4LoHcLxZOH7gh6DBU2lgA0FaNn6PJlnXNZ/owPxTosKDzEFF3yRoDe6UkK37DVQO0NSwA6JNmqls9qvks8fF9iIwKOg4R9ZJqIwz+p7Gq4o98JTF9HAsA2kztrJYjIPpLBXYPOgsR5YligUK+uXRG+f1BR6HSwQKAAAB11zePU8XPVHFM0FmIqFDMvZLIXdbwlaqFQSeh4LEAiLmaG1tHIqc/gugXAZig8xBRYSm0w6j5TbKz42fvXDKoKeg8FBwWADE1oV4Tq6RlhipmAqgIOg8RFZusEdGfNFSV/5bzA+KJBUAM1V3XfLg1+H8AxgWdhYgCJvoqPFzWeGHlk0FHoeJiARAjtb9bv6PmnB8DOCXoLERUasy9TrLz0sVnD1gcdBIqDhYAMTChXhOr0HyZBb4rkHTQeYioVGk7BP/TuLziKswUL+g0VFgsACJu1KyWvYzYekD2DToLEYWDAK+pmumNM/q9FHQWKhwWABFVfaVmpF/L9wF8A4ATdB4iCh0P0FmdmbYfrDhzeGvQYSj/WABEUM1vm6aIkVkq2DnoLEQUeotE5cKGGeUPBx2E8osFQISMvmldld/p/gTAOeDPlojy6682pxcvu7hyTdBBKD/YSEREXX3rVB/+tQIZGXQWIoomhawwiu80zCj/U9BZqO9YAIRczY2tI+HhWsBODToLEcXGXANz8ZLp/d4LOgj1HguAEKu5vukEWDML0EFBZyGieFHIeiN6ccP5FXOCzkK9wwIghLpm+Df/GJCLg85CRDGn+uesn/3qqouGtgQdhXqGBUDI1P62dQKMvZkz/ImoZCgWW2vPXHZh/+eCjkLdxwIgLFSl9vqWi63qTwWSDDoOEdHHeAbmp0sGlP2ELxcKBxYAITDyd201bs6/SYGDg85CRLQtInjOJLwz+U6B0sf3v5e4ulnNJzs5+yIbfyIKA1Uc4HUmXqy5vuXzQWehbWMPQIkac/Wayo5k4tcQOSPoLEREvaJyc9Zv+zonCJYmFgAlaNTspl2Myu0AxgWdhYioL0TxNoDPNsyoeCPoLLQ5DgGUmNrZrceJmqfBxp+IIkAFO6vgybpZzScHnYU2xx6AUjFHnZp1LT8CcDn4cyGi6FFAr218r+IKzBQv6DDEhqYkjKxvGuyIuRmqRwadhYiokAR4wjFyxqLzylcEnSXuWAAErO661n2ssXMA1AWdhYioKFSXqerpSy/o/0LQUeKMcwACVDur5YvW+I+BjT8RxYnIKBh5uPr6pnOCjhJn7AEIwJirNdWZbLlKBbz4iSjeVP+sbRUXLv2GtAcdJW5YABRZ3R91hLY1/1UhE4POQkRUCkTwgsnJqYsvKn8/6CxxwgKgiGqvaR6vrt4NkZqgsxARlRKFLlc1JyybUT4v6CxxwTkARVI7q+UIm5DH2PgTEX2SQEYa0UeqZ7V8JugsccECoAhq65vOsqJ3C7R/0FmIiEpYhYjeWTu76bygg8QBC4BCUpW6+tYfKOR6ARJBxyEiCgFXVa6tqW+6Eqocpi4g/uMWSNdM/+bZKsI3YhER9c5fnWT52YvPlmzQQaKIBUABVN+wYaDxzRy+wpeIqM+e9aGnLJ9euTroIFHDAiDP6q5fv4P1nbsh2DXoLEREUSCKd61rpy09t/87QWeJEs4ByKOaazdMstZ9io0/EVH+qGAn+M6jdfWt+wadJUrYA5An1b9tPgQO/ipAZdBZiIgiqkUtTl56QcVjQQeJAvYA5EFdfetUODqXjT8RUUGVi9G/1c5qOSroIFHAAqCPqutbvmBhbxdIOugsRETRJ2VW7F011zedEHSSsGMB0Ae1s1u+JtCbALhBZyEiiguBJNXKLbX1zZ8NOkuYsQDopZr6pstU9ZfgPAoioqITIKHAzTWzms4OOktYsQDohbr6pm8C8tOgcxARxZwDkVm19c2XBB0kjFgA9FBdfesPLOTHQecgIiIAgCjwfzX1zT8IOkjYsPu6B2rrW2cq7HeDzkFERFv0y8bpFd8LOkRYsAegm2rqW3/Exp+IqKR9s7a+9YdBhwgLFgDdUFvfOhOw3w46BxERbZvCfq+2vumKoHOEAYcAtqNmdvP3ofivoHMQEVH3CeSKhunlVwWdo5SxANiGmvqWSwH9edA5iIiox1SNXrj0vMobgw5SqlgAbEVtffMlCvxf0DmIiKjXfAHObJhecXvQQUoRC4AtqJvdcoZV/R3470NEFGoK5ByY05ZM73dv0FlKDRu4j6md1TpNxd4Gbu9LRBQJCu2EmlOXzii/P+gspYQFwEfU1Tcf5kP/zhf7EBFFjbbBx7TGCyufDDpJqWAB8IGaazdMgmseAFAedBYiIso/hWxwIEcvmd7vlaCzlAIWAABG37RutNeZeEqgQ4POQkREhSSrkfKmNH656t2gkwQt9gVA9Q0bBhrfPKHALkFnISKiIlAsEOsf3HBh1bqgowQp1jsBjp+jSfHNrWz8iYhiRLArXOeOMVdrKugoQYpvAaAqTWub6wEcFnQUIiIqLlVM6Uy23AjV2PaEx7YAqJnd9t8QOSPoHEREFAwVnFY3u+37QecISiwrn5rZTV+GyuygcxARUeBURM5tOL/8j0EHKbbYFQDVv20+BI7eK5Bk0FmIiCh4CuSMyvENM8ofDjpLMcWqAKi7vnmcb+VxgVYFnYWIiEqHAk1icWjjBRWvB52lWGJTANTVt46w6j8FkZqgsxARUUla4ngyZfFF5e8HHaQYYjEJcPRNmlb4f2XjT0RE21BnXb09LssDY1EA2M6WXytkYtA5iIiotCmwf0ey5cqgcxRD5AuAuvqmcxU4O+gcREQUEoLzamY1Rb7diPQcgJprN0xSVx4RSCy6c4iIKD8UmjW+c1jDhf1eDjpLoUS2ABh1TdMgk5DnANQFnYWIiEJItdEX7L98euXqoKMUQjSHAOao4yTNzWDjT0REvSVS44j8CXPUCTpKIUSyAKhd2/xjVT0q6BxERBRyisNr1rX9MOgYhRC5IYCa2a3HQ+3tiODfjYiIAqFG8fklMyruDDpIPkWqkRw1u2kXUXlGgMqgsxARUaQ0G4NPLTmvYn7QQfIlMkMAY65eU+mo3MnGn4iICqDCWvxlyLUry4MOki+RKQA6kolfK7BL0DmIiCiyxmXczK+CDpEvkRgCqJvVfLIV/CXoHEREFH0CnNEwveL2oHP0VegLgOo/tI2SrH0Z0IFBZyEiouhTyHqbMBOWf6WsMegsfRHuIYCZakyHfxMbfyIiKhaBVrme//uw7w8Q6gKgdmTzt1RxaNA5iIgoXlQxpWZ986VB5+iL0A4B1NW37uvDf0IgyaCzEBFR/CiQE88e2nhR/xeDztIboewBGHbz+/0U9mY2/kREFBQBEuKYm8O6NDCUBUCqvd+VXPJHRERBU8FOaTfzs6Bz9EbohgBqrm86AVZCv/yCiIiiQ9Sc0jCj39ygc/REqAqAmhtbR8LTlwEdFHQWIiKiTWS1gUxYMr3fe0En6a5wDQF49jds/ImIqPToYCu4LugUPRGaAqB2dvNpAKYFnYOIiGiL1B5bM7v5c0HH6K5QDAFU37BhIHxnnkCHBZ2FiIho62SNa7D3ovPKVwSdZHtC0QMgvvySjT8REZU+HeRZ/W3QKbqj5HsAqq9rPlQMHkAIshIREQGAUXxuyYyKO4POsS0l3aiOrNcyV1teUcGOQWchIiLqLoWsML63Z8OFVeuCzrI1JT0E4KJ5Jht/IiIKG4EOU8f5n6BzbEvJ9gDUzGqdCLFPAgj125aIiCi2rFE9bMmMymeDDrIlpVkAzFS3ZmTzM1DZO+goRFHSLyGoSkGq0oIBaUHCCPq5XfeBpANk3E/eEtpyipzt+v8bOqEA0NypWJu1WJuFtnRqEf8GROEigv8M0fL9Xp4uuaCzfJwbdIAtqR3RfLmy8SfqtqQDjCwXGVVuMLJcpKbcYFSFkVHlIkMygv4pSFXKIFmA/jTPAuuyFus7oOuyipXtqo3NFkubVRtbVJc2WzQ2qXb4LBQoflQxfjWavw7gl0Fn+biS6wGo/d36HW3OvCqQdNBZiEpN0gF2HmBk5yojYwcZ2WWAg10HGKmuECm5X+aPWdVmsbhJ9c21VuevsTp/rdUFa6225FgYUNRpWyKT2HPhmZmGoJN8VMn1AGjO+ZUAbPwp9hwBdh1oZMIwR/YZ5sjeQ4yMrjTilvTU3a0bUmYwpAwyabjzYa2iAJY2dxUFr6/29cUVvv5rhdVWFgUUKVKWa/d+AaCkdgksqYeG2lktR6novUHnIApCWUJw0EhHJg43ZsJQR3YfbKRfoqR+RYvCs8Cba62+uMLXl97rKgreb1VWBBQBclzj9PJ/Bp1io5K5u4yfo8nmdS2vKLBL0FmIisEIMH6wkYNHuTJ5lDH7DXelEGP0UdDYrPrkMk+fWurro42+ZQ8BhZLizaFSPqFUJgSWTAFQO7vpW6pS0msmifqqPCk4stYxnx7tyuSRjhmQLplfwdBo9xTPLvf1kUbfPtroaWMTewcoPARyRcP08quCzgGUSAFQc2PrSHj2dQDlQWchyreqlODIOsdM3dE1U0bxKT/f3llv9Z6Fnt71ds4u2sBigEqbAk0JI+NL4WVBpVEA1DfdCMiXgs5BlC+VKcG0HV1z3I6u2X+EE9qJe2Ezb5Wvc9/17dyFOX2vhcUAlawbGqdXXBh0iMALgOrftuwpjr6AEt+WmGh7jACTR7ly2q6uObrOMektbKpDxWEVeHmFr395M2fnLvRt1mMtQCXFh8WkxgsqXg8yROB3qJr6lvsAPSLoHES9NbJc5KQxCTljXMJUV5T8cvzYae5UzF3o2Zv/k7NvrLGsBKhUPNo4veLoIAMEerOqq98w1cLcFWQGot7Y+LT/ld1d5/Bal61+SLy+2uqf5+fsXe94to0rCShwwS4LDO6+NVPdmuEtr0AwNrAMMVeRFOw/wpHdBxkZXNa1k9zKNtVXVlp9brmnG/d/p00qkoLTd3XNWeOTpq6S7X5Yrc0q/vhGzv7hPzl/dTsLAQqGCP7TUFU+EaeJH8j5gzgpANTVN51rIb8N6vxxNnG4I1/ZI2GOqnVMytnyJbAuq7jp9Zx//Ws5rrkGMLq/yLl7JM3JO7umPIab80RVh6+4423PXv/vnF24nsMDVHxi7LkN5/W/OZBzB3HS0Tdp2u9sfgOQ6iDOH1ej+4v8eHLKmVLd/dlpDc2qX3sk67+8Ip5vctl5gJGv7ps003Z0zVZqJYoAq8BDDb6tn9dpX3w/ntc6BUS1IdVZMf6dS6Sj2KcO5JZWM7vlG1D9WRDnjqtTd3HNjz+Vcrb0utft6fSBSx7J+v9Y5MVmUGD3wV0N/9F1rjFs+GPl2eW+/t/Lnf6L77EQoOIwwDeWTK+4ptjnLfqtbfCNqyrSXma+QIcW+9xxdd4eCfP9A7fW2d89vgJXPJ71b38r2kXAXkMd+fq+CU7sIzyx1NP/eynnv7qShQAVmqxqd9vHrj5nSHMxz1r0twGWeWWXKSwb/yI5ss6V7x3Qt8Yf6Hoz3S8PSTsiWcxZEL0iYHR/kSv2S5mpO7h84CcAwMHVrhxc7boPN3j6q5c6/ddXc44AFYoOyXiprwL4STHPWtR73cj6psEOZAGAimKeN67KEoLHTy9zh5Xl72HWKvCtJzr82xZEY43AoIzg6xOSzhljE4a79dHWKIB7F3n2J8912KXN3GGQ8k8hG4zv7dJwYdW6Yp2zqLc8B3Ip2PgXzZm7JUw+G3+ga/37zw9OOZ8fmwh1c1mWEHxt36R58vSyxFm7sfGnbRMAx+3gmkdPK3Ov2C/pxPE1zVRYAu0Pk/hqcc9ZJKOuaRpkEvIWWAAUzcOfLXN3HlCYHm2rwPee6vD/PD98PQHH7OCYmQelzYh+HOan3lnZZvGLFzv9O97yLAcGKF8UaDK+v3OxegGK9txjXPk62PgXzbB+IoVq/IGunoCfTEk5XxwXnp6AukqRm49Ju/VHZRw2/tQXQ8sM/u+QtHPPSWXupOFcIEr5IUClOImLi3i+wqu+YcNA8c3bYAFQNEfWufK7o9MFn+SpAL7/VIf/xzdKtycg5Qgu2jthLtg74fR9OiTR5hTALW/m7E+e6/SbO9kdQH1TzLkARXl6M577NbDxL6rBmeI84QqA//1UyjlrfGn2BEwe5chDny1zvz4hycafCkIAnDE2YR49rcw9dgfOJqG+EWh/dZyi9AIU/GIdc/WaSit6QaHPQ5urTBavsRMAP5qccs7evXSKgLKE4MefSjm3TM243LOfimFomciso9LOjUdnnBHlvOao9xRy8ZBrV5YX+jwFv2F3phIzBFpV6PPQ5oq9mF0AzDwo5Zy7R/BFwP4jHXnw1DL3S7sluKafiu6oOsc8fGqZe0aI5sdQaRHogLSbOavQ5ynoBTrmak1ZmIsKeQ4qHQLgvw5MOV/dJxnIjS/tCr6zf9K5bWrGrangExgFpzwp+OmUlPOnY9Pu0DLWAdQLiq9hphZ0HldBr8zOdPOZAh1RyHNQ6fnmpKQzfc/iFgF7DDHywCkZ94K9kty7n0rGwdWu3HdyOnFYbS9ewkHxJhhdN7LlhEKeonA36TnqQOXSgh2fStr3Dkg6l+xbnCLg1F1c89dpGXeH/mz6qfQMKTP4/WfS7s8OTjll3ECIekBVLyvk8Qt2g65b23KCAmMKdXwqfZdPTDoX7l24IqAiKaj/dNq58tC0k+YDFpUwAfCFsQlzz0kZd5eBLFSpexQysfa6psmFOn7Bbs5q8PVCHZvC49v7JZ2vF6AnYI8hRu47pcw9ZjSXXVF4jKkycs+JGfezu/K6pW4yhetJL8hFWFffuq8qDijEsSl8vjEx6VySx4mBZ45PmL+dUObWcqIfhVDaFfzqkLTzw4NSDssA2h4Fpo2+qWlsIY5dkMtP4fPpnzZz+aSkc+mEvhUBrunab+B/J6ccLrCisDtn94SZc1zGHcZtqWnbxO+UgmwMlPfbaN0fdYQFTs73cSn8Lp3Q+yJgUEbwl6kZ98sluuMgUW9MHO7IvSdl3Il8nwBtg0LP3OH6lmH5Pm7eb6a2re0CgSTzfVyKhksnJJ3v7J90evKZcYOMzD2xzN1vBG+SFD1Dywz+MjXjnjSGAwK0ZQJJe1bPz/dx83rBjblaU4Cek89jUvRcsFfSXD6pe0XAZ0Y75q7jM241x/spwpIOcNXh6cA20aLSp5DpXW1s/uT1YsumWk8BdEg+j0nRdMk+SfPd7fQEnDk+YWYdleHaaYoFQdcmWr86NM3JgfQJAh3akWw5MZ/HzOtlJtDp+TweRduMvZLmewdsuQi4aO+k+d/JKYcrpiluPruLa/54TMatTPHip82JQV6HAfJWAFTXt+wB4MB8HY/iYfqeSfPROQGOAL84JOV8a7+ezRMgipLJoxy5fVrGHZxhEUCbqGJK7TXN4/N1vLwVAHz6p966YK+k+cGBSSflCK49Mu18blfO9CcaN9DIHcdn3JF8tTB9hCbyN88uLxfWkGtXlqfczGIBKvNxPOq7GXttf4y91Lzfqjqca6KJNrO0WfVz97b5DU2qQWeh4ClkQy7TMnrFmcNb+3qsvDxppZLp09n4U1+x8Sf6pOoKkbuOz7hjB3FGDAEC7Z/qyJySj2PlpQAwVr6cj+MQEdEnDSkzuPXYjDt+MIsAAqDmrHwcps8FwKjZTbsosF8+whAR0ZYNygj+fCzfJkiAKj5V8/v1O/X1OH0uABw1ZyNPcwmIiGjrBqYFf5madneqYhEQcyLZxJl9PUjfCoCZ6lrgC30NQURE3TM4Y3DL1IzD3THjzYp/FuZonyZ696kAqBvRdrRAR/TlGERE1DMj+oncOrXMGVrGFbNxJZCRNetaj+jLMfp09VjYL/bl80RE1Dt1lSJ/Pjbt9ueOgbElas/o0+d7+8HBN66qyHippYBk+hKACiOM+wBQcXT6wIYOiw2d0PVZxfpOaIevaM0pPNv1PTkLbNyOKe0KUg6QMIIBKciAtKAqBalKGXDP+uA9956vZ9zb7uVs0EkoAK1Zr71m1UVDW3rzYbe3Zy3zMycqlI0/UQla1Wbx1jrVdzZYXbLB6tJmi+WtqstboKvb89dSDEgLqitEqstFaiocVFeIjKkS2XWAkSHsni6KA0Y48otD0s43Hs363CkodvqlncxUALf15sO9LgAAfK4PnyWiPFnWovqvVb7OW2H11dW+LlhjdX1HcZqCdVnFuqzqa6uggL/Z1wZlBOMGGdltoCN7DzOy3zBHhpZx4lohnLKzaxqbknrly53sB4gbwefQywKgV7+Mw65rHpo0WIy+FRBUQBwCiK7GZtUnl3n69FJfn33P2nw+0RdadYXIpGGOHDDSkUNrXBnB3R/zRgFc+mjWv/NtLzwXBPWZAjnNae2yiyvX9PSzvWrA0wanWTb+REXhWeC59zy9b5FvH1vqaWOI94Rf2qy6tNnTu97xAHRg14FGDq9x5dAax0wa7gjnFPSeAPjFwWlnWWu7Pr+cowFxIUDCJOQUALN7+tleNeJWcCp4eREVTKcPPLrUt/94N6cPN/q2qUhd+sW2YK3VBWs79bp5sIMygmN3cM0JO7lm4nBHuNVNzyUdYNYRaXfqXW3e8pbwForUMwr0qgDo8a/Y6GtbhvuuLkYeXyVM+cchgHB6daWvd7zt2bvf8WyxxvFL0fB+IieOScjnxrpmx/4sBXrq1ZW+njq33ev0t/+9FAl+p0XdigsqVvbkQz3uAfATeiKUjT9RvjR3Km5/y7N/eiNn31lv49vqf8T7raqz5nVq/bxOe8BIR84YlzCfGe0alrTds/dQR2YelHK++2QHS4B4cJKOHgfgdz35UM+HABQn9fgzRPQJb661evN/cvbOdzzblmO7vyUK4Nnlvj673PcHpsU/c7eEOXN8whmcYafA9nxxXML8a4Wvt7/FSYFxIDAnoYcFQI9+i0Zd0zTIJKQRnABY8jgEULpeWuHrda922oeW+Hzc74WEAU4Y45oL906aMXwpzjZ1+IqT7273XlvFSy3qFMgZ369uuLBqXXc/06OufCeB48DGn6hXHmv09JS57d7Jf2/3HmTj32s5C9zxljDUkPwAACAASURBVGePvL3Nu+ChrP/2Ov5Tbk3KEVx3ZMYpT7BOijoBEuK6x/bkMz0qAFTlhJ5FIqJ/rfT1s/e0e2fel/VefI/Ls/LFKnDvQs8edUebd+FDWX/hBhYCW1JbITJzMnsD48CqTuvJ93e7ABhztaYgOLTHiYhi6q11Vs95oN0/4W/tHtdlF45V4J6Fnj1iTpv3zcc7/JVtHPL+uNN2SZhjd+AuCzHw6TFXa6q739ztCyLrth0OoLxXkYhipKlD8aNnO/yj72jzHlziszUqEl+B2xbk7MG3teeueqXTdrDm2szPD045I8u582LElXcmWz/V3W/udgEgju3R2AJR3Ci6xqYPndOWu+G1nGX7E4y2nOLKlzr9w29v8+5fzAJso/4pwS8PTjmsAKJNxR7T3e/tfpeQarcPShQ3izZYPXVuu/eNx7L+6na2/KWgsUn1/H+2++f+s91/v5W74gHAlGpXztkjwaGASJNuzwPo1oVQXd+yB0Rqex+IKJoUwC1v5uwxd7Zzgl+J+udi3x46p827bl4ne2UAXDEp6dRVciggwnbY4camXbvzjd0qAETs0X3LQxQ9i5tUT7273fv2Ex0+N/IpbW05xU+f7/Q/d2+7tyzme+SnXcFPp3AoIMp8T7rVZnevK0jNEX1KQxQx/1jk2al3tnkvvs9nyjB5frmvR93R5t3yZi7WcwM+NcqVU3bhqoDIEnSrzd7uBTD6Jk0D9qC+JyIKv3ZP8c3HO/wZD2b95k62/WHU0qn49hMd/sUPx/tn+IMDUs4gbqkcSao4uDvLAbdbANiO1imAZPITiyi8Fm6wetxd7d5tC+L99BgVd7/r2ePuavMWrI3nBkID0oIfHpTiBkHR1C/rthywvW/qRheQZfc/xd7jjZ4e/7d2j9vORsuiDaon/L3d+/u78Xxhzok7ueaQGpfdABEkzvaH7rdfABg5Mi9piEJq9r877Zfvz3pNHWz7o6gtp/jqw1n/v5/p8OM4o2PmQUmHswGiR+Bvt+3e5o+9+oYNA1Wxe/4iEYWHZ4HLH8/6//tcZywbhri58fWcPeeBrNcasxUdO/U38uXx3BsgahSy7+ib1lVt63u2+UMX635qe99DFEXtnuL8B7PenAXx7BqOq0caPD3p7nZvecw2DvravklnYJojARFjtMNscwL/tht360/JaxyiEFibVXzu3qz30BIvVo0AdXlzjdWT/t7mvxWj+R79U4JLJ/KNgVGjcLb5XoBtFwAGB+c1DVEIPLjEs/9awU7/OHuvRfWzc9u911bHpwg4Y2zC7DzAsBsgSoxusw3fagEw5uo1lVDZM/+JiErb6bsmzHf359NQ3K3LKk6/pz02mz25BvivA3jdR4kq9h1846qKrX19qwVA1k1PBsCLgWJpxl5J820WAbHX0qn44j+y3lPL4jEcdEiNKweO5C7BEeKWdWT239oXt1oAiOHufxRvF+6VNN/nE1HstXuKrzzQ4T0fk5c9fXMSr/lIcWTy1r60jQIAW60aiOLi/D2T5nssAmIv6ynOfiDr/XtV9IuAicMcmVLNzYEiQ3S/rX1pywXATDVWsW/BAhGFyPQ9k5wTQGjpVHzhH1nvP2uiPzHw2/slOQ4QEVaxH2bqFtv6Lf5h9YjW8QJUFjYWUXjM2CtpvsFlUrHX1KE4675s5PcJ2GOwkcNq2QsQBQLtXzeqZdctfW3LPQDGbrXLgCiuvr5v0lw6IcmNsWJuZZvFmfe1+1HfGvryiewFiAqrusUh/S13C1hhAUC0BZdOSDpf25dFQNy9tdbqRY90eFHeJ3L3wUaOrGMvQCToltv0rd3IJhUwClGoXTYx6VyyD4uAuHu80dMfPtPhB52jkM7fM8FhrwgQQfcKgNE3aVqBsYWPRBRel09iTwABf3wjZ+e8lYtsP8D+IxzZdxhHAsLOKsaNvknTH//zT9zA/LamPQC4RUlFFGKXTUw6l7AIiL3vPdnpvx7hLYPP3ZNvCgw7ARKabRv38T//xA9WErJ3cSIRhd/lHA6IvQ5fcf6D7f7abDRrgGNGu6auUtgLEHJW/E+07Z+4callAUDUE5dPSjrT92QREGdLm1W/9UQ2kvMBHAHO5fUdeiKfbNs/2QMguk9x4hBFx/cOSDrn8yYZaw8s9u2tb0ZzPsBnd3bNgDQ7AcJMge0UAHPUUWB80RIRRcj3D0g6F+3NIiDO/vvZTn/hhujNByhLCE7flXMBQm6Pj+8IuNl/VLc27QhIpriZiKLjiv2Szjm780YZV205xdcf7fCjuD/A58e6hn0AoVY+um597Uf/YLMblXiyW3HzEEWLAPivg1LO2SwCYuvVlb7e8Fpn5EqAHfobOXAUlwSGmXaazXr4Ny8AFCwAiPpIAMw8KOV8eTyLgLi68uWc39AcvfcFfGEsr+kwsyKbLQXc/Iep+MQ6QSLqOQHw35NTzlksAmIp6ymueCIbuXcHH7ODawZn2AkQWh9r4z9+c2IBQJQnAuBHk1POF8exCIijZ5b5etc70ZoNkDDAqbvweg4rwdYKgJlqFNil6ImIIkwA/HhKyvkCi4BY+slznX5LLlr9AKePdXkth5RCxkL1wy6cD3+QXbMDuQKAKN8EwE+npJwv7cYiIG5Wtllc92ouUhsE7dTfyO6DuSAgpMqrb24fufE/Prwh2fbEmGDyEEWfAPjfT7EIiKNZ8zrtkqZoTQicthN7AUKr1f+wrd/0Q3R0p0DCEMWEAPifySnntF1584yTnAV+/kJHpOYCHL9Tgi8HCClxN7X1H7kR6Y5BhCGKEyPALw5OO5/dhUVAnNyz0LP/XhWdRQGjykX24WuCw0nlw7b+w5uQQjgEQFQERoBfHpJ2pu3IIiBOrnolWnMBjucwQFhtYQgA4BAAUZEYAa46PO0cOJJPUXHx0BJP/7UyOr0Ax+3oCqcCho/g40MAqgLo6KACEcVRwgC/PiztVKZ4F42LX70cnV6AoWUiEzgMEDqKjw0BDL+pZTAgZcFFIoqn4f1Evr5vwgk6BxXHE42ezovQXIDDahwOA4RPRe1v1w8APigAUh2mOtg8RPH1hbEJ05+9ALFRPy8XmRUBh9a4vHBDyDpuNfBBAaACFgBEASlLCJ+kYuS+RV5k9gUYP9jI0DJeumHjqF8DbCwAjK0JNg5RvE0azrHUuPAVuDEirwsWAIfUGFYAIaNiNhUAYoU9AEQBGlnOfVXi5LYFnm3qiEQnAA7jMEDoqGLTEADEsgCIGBuNewtRJLV7irvejcabAqeMcgx3BAgXEd3UAwCREYGmobxb0x6Je0tsrOsAS7aYuWV+NCYD9k8Jxg/mEFaYqMhwYOMcAIthwcahfFvZzgYlTN5YHZ2lYdQ989fYyGwMtN8wbgkUJoKuNn9jD8DQQNNQ3r22ytdodDDGw9PLo9EQUM/8OSK9ABM4iTVUrMoQADAT6jUB6ICgA1F+re9QvLSCjUoYvL3O6vw1nLURR/9Y6NusF/4f/aRhXAkQJgIdjJnqmpVu2xB0reagiInK00XU3fQ6f05x1ZJTPLbUhv7nP6TMoK6SK1lCxOwwqnWQcbLK7v+Iuvsdz762mk+WpWxZi+ptC1gAxNncd3KR+B3lXhbhkrMYaqyDIUEHocJQAN96Iuu3ReP+Ekn/9XSHz+Y/3h5q8G1rBH5HJ7IACBXH6hAD0aqgg1DhvL7a6qWPZX32A5Sem9/I2QeXRGAAmPqk3VM8ttQPfRm4J5cChorvaH8WADFw3yLffvXhrB+FyUZRcc9Cz/7w6Y7IvBqW+uaRhvD/cu48QIQlQHgIMMBAwRUAMTB3oWc/e0/We2c9+wKClLPAlS91+hc9lPW5RoM2erzRhv4XM+UIdujP/QDCw1QZhVQGHYOKY95KXz99R5v33Sc7/LfXhf5+EyotOcXtb3n2yNtbvate6eQ/Pm1mZZvFGxFYCjpuIAuAsBCVShcAhwBixLPAn+bn7J/m52xdpch+wx0Z3s9gUEYk7QadLjo6faC5U7G6XfWNtVb/vdJqe/h7eamAHm30dPygZKgb0F0HGZm7MOgU1D12gCvQ/sptAGJpSZPqkia2SkSl4Nnl1l68N0K9oc64gU7QEai7VKuMQsqDzkFEFHevrAj/9t1jOQQQHiL9DASZoHMQEcVda06xIORzc0aViyTZCRAOIhkDZQFARFQKXnw/3GtDjAAjy7klcCioZoxAy4LOQUREwMsReIFXTQW7AMJAoWUGKiwAiIhKQBSWAtZUsAcgFFTKjIpyCICIqAQs2mC1M+T7Q1azAAgHQcYAJhV0DiIi6tqnI+y7ddZUhHolY2woJG0U4PYvREQl4s2QrwSo5iTAUBDANQJlAUBEVCIWhrwAGFHOHoAwUMAxgHLKJhFRiWhoDvduQFVJbi0bBgJ1jQIsAIiISsTSFg11D0BZQpDie4FDQB0jEBYAREQloqEp3AUAAFSl2QtQ6hTiGrAHgIioZKxqs+gI+X5AA9Js/0uddM0BICKiUqEAVrcj1BXAgBQLgDAwAEK+7QQRUbSsy4a6/ceAFJcCljoFfKNQFgBERCVkfUe4VwJUsgeg5AnUM8IeACKikrKuI9xDAAkOLoeA+AYQFgBERCVkfciHANKcWl7yFOIZhXhBByEiok2yIV8FkOA+ACVPAN8IwAKAiKiEdIS8XzbJIYCSp4BnANsRdBAiItrE88M9B8B1uBFQqRNo1ohKe9BBiIhok072AFChKdoNRNuCzkFERJt0hnsVIOcAhIFom1EICwAiohIS9mV0XrjfaBwLAmkzEHAIgIiohCRDvowu7EMYsSDSbqAsAIiISknChHsSXS7kkxhjQbXdCLQl6BxERLRJ2HsAciGfwxALqq1GIeuDzkFERJuk3FB3ALAACAORtQYKFgBERCUk7K/TDftOhvFg1hsY3RB0DCIi2qQqFfo5AFTiFNpkDHsAiIhKyoB0uNcBNnWyB6DkiV1n1HAOABFRKQn7EMC6DmUFUOoU6w1yLACIiErJwHS4hwDC/jrjODBWmoxvsCroIERE1GVQRlCWCHX7j7UsAEqe+lhhXJGVQQchIqIuNRUm3K0/gPUd3Aio1HU4WGWWvFe2CgBXbRIRlYCacgl1AdDuKbIe2/8S568YVL7GYKZ4gKwNOg0REQE1leFeAbCBT/8lTyGrcZr4H1xpynkAREQlYKeqcA8BrGhjh3KpM9CVXf8LQAQrgo1DREQAMHZguAuAxhYuASx1CtlUAED1/UDTEBERjAA79Q/3HIDGJvYAlDy17wMfFAAKaQw2DRER1VWKhH0J4NJm9gCUOoHTAGzsAQCWBpiFiIgAjBvohLv1B7CUQwClz/hLgQ/nABj2ABARBWzC8HCP/wMcAggD6zmbCgCTU/YAEBEFbNKwcPcAKIBl7AEoecbaTUMAObXsASAiClDaFYwfHO4C4P1W1XZuAlTy3ERuUw/Asosr1wDaFmwkIqL42nuokUS49wDC/DV+0BFoOxRoWjh94AZg0yRAiMii4CIREcXbAcPD/fQPAG+us3z8L3EiunDj/99UbyreDSQNERHh0Fon5M//wPw1LABKnsqHbf1HCgB9J5AwREQx1z8l2GtIBHoA1rIAKHmKD9v6TQWAyMItfjMRERXUIdWOCXvzn7PAwvUsAErfloYAfBYARERBOKzWDXnz39X457gFQMlTK58sAEwmxyEAIqIiSxjgiAiM/7+2mk//odDP+eQQwOIlVQ2AtgeTiIgong6tcUxVKvQdAHjhfZ8FQOlrWXpmZvnG/9hUdc4UC8GCQCIREcXUtDEhf/vPB15iAVDyRDAfIh/+nDbrdhKL+cWPREQUTylHcGRN+Lv/12YV73ICYMlTK5u18ZtfeMICgIioWD5d55jyZPg7AF5Zadn6h4HYrRcAKs4bxU1DRBRfnx/nhv7pHwBefI/d/2FgVLdRACQ89gAQERVBbaXIQSPDv/wPAF5cwQIgDCRlN3vI36wAWNqvciFfCkREVHifH5swJgLNf2tOMW8lC4AQaOla7bfJ5t1Pp4kvIq8XNRIRUcy4Bjhtl2h0/z+z3FpuABQCgnmYKZv9pD5xAari1eIlIiKKnxPHuGZIWSTafzza4PHpPwRkC237J65AA2UBQERUQOfukYxG6w/gsaUsAMJARed9/M8+2QPgO/8qThwiovg5tNaV3QZFYfQfeHud1aXNygIgBJyc2X4PQNIre12BXHEiERHFy4w9E07QGfLl0UY+/YeBQjtdv98nVvl9ogB45xLpMMCbxYlFRBQf+wxz5KCRYX/x7yaPLfU5/S8EDDD/nUukYwt/vgWKFwqeiIgoZi6fEJ2n//UdiueXc/lfGCjk+S39+RYLAIWyACAiyqOJwx2ZUh2NjX8A4N5FHpf/hYQYu8U2fYsFgHjCAoCIKI++OTEZmad/AJj7rsfmPyQc04MegIbV5fMVsqGwkYiI4mFKtSsHRmjsf2WbZfd/SChk/aLGire39LUtzwGYKVZEXy5oKiKiGHAE+MEB0Xr6v2ehb9n8h4MRPP/xHQA//NrWPiTWbLHLgIiIuu8L4xJm7MBorPvfiN3/4SG69SH9rRYAFvpsYeIQEcVDZUrwjQnRevpf1qL6Ct/+Fxqq+szWvrbVAiCbaH8agFeQREREMXDphKQzKBOph3/cviBn2fqHgwK5jrKW57b29a0WAKvPGdKMLewdTERE27fnECNfHp+IzJ7/AOArcNuCHNv/kDCCl1ecObx1q1/f1odF8WT+IxERRZtrgJ9NSTvRmfff5dFG3y5r4d7/YaHbacO3XZ2qwwKAiKiHzt8zaXYfHK2JfwBw6/xONv4hor55altf32YBYF3vaQCc7UlE1E07Vhn52r7R2fJ3o/dbVR9p4N7/IeK7mc5tTubfZgGw9Nz+ayH67/xmIiKKJtcAVx2acjLR2fH3Q39ZkFPO/Q8PEbyy+OwB67f1PdudoCLWPJS/SERE0fWNiUln76FRG/kHPAv85U3u/B8q3Wi73W4c5mEAl/c9DVHhJAxwyi4Jc8JOrtltkJGKpODNtVYfWOzZP/wnZ9d38NGFCmu/EY5csFcyUrP+N7p3kWeXc/JfqCjsw9v7nu0WACbV72m/s7kdkEx+YhHlV3WFyOyjMs7HJ13tPtjI7oOTzpd2c50v35/1Xl/N5ctUGIMygt8cHr1Z/xvVz+vk03+4tKY6y7e7m+92q9XFZ0sWYp7OTyai/KquELl9WtknGv+PGlpm8IfPpN0R5RLR2zMFyRHgmsPT7oh+0by+nlrmKYvnsDGPvXOJdGz3u7p1LN1+VwJRsY0qF7ntuDJnVDca9iFlBr87OhPJyVkUrG/ul3Qmj4rqsz9w3TzPDzoD9YzpRvd/1/d1g+Tk/r7FIcqvUeVdT/41Fd1/6ho/yMjPD0lFbnkWBefo0Y6J6rg/ALy51upTSz0+/YeMJ/rP7nxfty7chosr/gPF4j4lIsqTkeUit00rc6p70PhvdOJObqRv2FQ8ewwxctVh6eg++gOYNa+Tff8hI4qFy86vfKs739vtG6EA/+h9JKL8GFkuMmdamVPbi8Z/oyv2SzqH13IsgHpvVLnITUen3X6J6F5GDc2qd/O1v+Ejend3v7XbBYCq3Ne7NET5MeKDMf++NP5A16St645MuZOGR/rhjQqkPCm46TMZZ2hZtDuS/t9LHZbNf/gIut9Wd/sKTuX6PQaguTeBiPpqeL+uxr+uMj8zrTOu4IZPp90xA6K3XzsVTtoV/O7otDt2YLSvm3c3WP3bO2z+w0aBpvIB5d1etdftAuCdS6RDFI/0LhZR7w3OGNwyNeOMzlPjv9GAtODWqZlezSWg+HFNV8/RASOi33N05Uudltv+ho8o/vmf06Szu9/fsz4sx87tcSKiPhhaZnDH8Wl3TFVhnriGlYncfEzGGZiO/D2d+sAR4DdHpJ0jYjB3ZMFaq/cu5NN/GKnIPT35/h4VAMa1dyu029UFUV8MKTO4bVra3bF/Ybtbx1QZue24jDs4E/l7O/WCI8CvDks7U3dwoz3o/4ErX+6wnPofPgrtNL7Xo7l6PbqgF589YL2IeaJnsYh6bnDG4Lbj0u5OBW78N9p1oJE50zJu1Cd2Uc8kDHDNkWnn5DHxaPznrfL1/kV85W8YiTgPNVxYta4nn+nxRS2wd/X0M0Q9MTgj+Mtxhev235oxVUZun8Ytg6lL0gGuOyoTmyd/BfCj5zo59B9Son6P2+YeX9iOmLsBcGtIKojBGcFtx2XcXQKanb9DfyO3TytzavM84ZDCpSIp+NOxGffTdU4sGn8AmPuuZ198j+1/SHkecG9PP9Tji3vReeUrRPBMTz9HtD2DMoJbp2bcnQNemldbITL3xDJ3Ugxme9MnDe8ncvu0TCxm+2+U9RQ/e6GDXf9hJfLY8umVq3v6sV5Vtwr8tTefI9qagWnBX6Zm3F1LZH31gLTglmPT7rSd4tH9S13GDTJy94llzm6DSuM6LJZZ/87Zpc3Kp/+QMmrv7NXnevOhnIvbAXi9+SzRxw1MC249rnQa/41SjuDqw9POuXskWATEwNGjHXPX8Rl3eERf67s1K9pUZ83LcVg3pBTa6eXQq7l5vbqxvf+VilUiwlcEU58NSAtumZpxx5VY47+RI8B/HZhyfnFIyknFp0c4VhwBvrVf0pn96YxTFuG9/bfmx8912LYcH/7DSiAPLLu4ck1vPtvrJxsB/tLbzxIBQGWqa6JVGLpbP7drwvztxIzLyYHRMjAtuPmYtHvR3snSvwgL4ImlHrf8Dbm+tMW9LgCy6Za/AWjt7ecp3vqnusb89xgcnvvu+EFG7jmpzD2yLvq7wcXBfiMcue+UMndKdTx/nm05xXee6mDXf7i1dmRae/2m3l4XACvOHN4KviKYeqF/qmu2/+4havw3qkoJbjw67X5n/6TDmQHh5JquV0LfdlzGHRGz8f6PuuqVnN/YxIl/oab6tw/a4l7p0y3MqP1zXz5P8dO1vjodysZ/IwFwwV5Jc/8pZe4eQ8L794ijmsquJX4X7500cZ7SMX+t1Rte62TXf8iJNX1qg/tUACwZWPkAVJf15RgUHxVJwa1T0+5eQ6Jx6915gJG/nVDmfnWfeDcmYeCarqLtoVPL3AnD4v3T8ixw+eNZnyP/Iae6rGFwv0f7coi+dWKeJj5EbunTMSgWKpKCPx+bdveMSOO/UcIA35yUdO48IeOOC8Fkxjjac4iRuSeVud/ZP+lk4jncv5nZr3Xa11bxdT9hJ+L8HqdJn+Zw9HkUU5P29+jaRppoi8o/6Pbfe2i0Gv+P2meoI/eeVOb+8KCUU56M7F8zVCpTgh8elHL+fmKZO57FGQDg9dVWf/ViJyf+hZ8ikftjXw+Sl1+KmvrmxwEcmI9jUbSUJQQ3fybt7hejbVVXtVn89IVO/69veXzMCoAR4OSdXfPd/ZPO4Axnam7U4SuOu6vdW7CWl2XYieDxhvMrjurrcfLz26H6+7wchyIl7XY9+cep8QeAIWUGVx6adu44PuNOHB6vv3vQplS78sApZe6Vh6bZ+H/Mj57t9Nn4R4SVP+TjMHm5OQ25dmV5ys0sFqAyH8ejaPjZwSnnC2O5WO7hBk9/8WKnP38Nb76FMmm4I5dNTDoHjWTBtSWPNHh69v1Zjxdg+ClkvUW/0cunS1tfj5W3X5baWc1Xq2BGvo5H4Tasn8hzX+jn8nbcxSowd6Fnr3ypwy7awLXX+bLPMEcum5BwDo7pZj7dsbrd4tN3ZHOr2zntPxJUf9M4o/KyfBzKzcdBAEAcXKcW05HHooLCa/JIR9j4b2IEOGEn10zb0TUPLPFs/bycfWUF373eGwLg4BpXZuyZcCaP4lW2Lb4Clzza4bHxjw6B3JivY+WtAFhyXsX8mtnNz0AxOV/HpPAaVhb7nv8tMgIcM9o1x4x2zUvv+3rdvE77cINvOTiwfa7pKqKm75U0Y0v05VGl5lcvdvpPLWWhGRUieLxhesUb+Tpe3goAAIDIbKiyACC0crRxuyYOd+TG4RlnSZOa297M2TlveXZlG5/UPq6uUuTz4xLmszu7ZggLy2775xLfXvsqd/uLFMXsfB4ur1X0mKs11ZFqXQjokHwel8Jn4nBH7jw+k98CM+I8Czza6Nu/vNmpjzT4Ns7PbWlXcFStYz4/zjUHjXSFz/s9s2iD1ePuaveaO2N8EUWMQlb0H9Bvp/+cJp35Ombef61q61t/qLDfy/dxKVyMAI+f3s+t4+tze2VVm8UDS3z7j0WefW65r3HYtjVhgENrXDluJ9ccVeeY8gQvnd5oyylO+DvX+0fQ/zROr/iffB4w779hdfWtI3z4bwskme9jU7gcVeeYG47OcJZWH63LKh5s8Oz9i3z7zHJf23LRua9XpQQHVzvmsFpXjqx1TP8Ur5a+sApc/HDWv2dhHErG+FBoh+uZnRdfVP5+Po9bkN+22vqm3yvkC4U4NoXLJfsmzeUTk07QOaIiZ4FXV/r69DLfPrnc13+tCFfvQNoV7DXUyIHDHTm01jF7DeFqkXz6+QudPsf9o0eAPzRMrzivAMfNv7rrWvexxj5fiGNT+PzykJRz+q7cEKgQWnOK11ZbfW21r/9eZfW11VYXrbclsdGAEaC2UmS3gY5MGG5kwjBH9hjsCK+Ewrj1zZz91hMd3Oc/gqzKpGUzyufl+7gFq71rZjc/yiWBBHQt3/r9Z9IuN2spjuZOxYJ1VhdvUF3cZHXRBovFTVYbmlQ3dOS/NBiUEdRUGKkpF6mpNNixSmTcQEfGVInw7XvF8eRST8+6P+uFqTeIuu3RxukVRxfiwIUrAOqbTgRkTqGOT+FSnhD89YSMO47rtwPV6QNrs6prsorVbRZrOqBZT7GxMMh60I++K84RoF+y6z6RcQUD0oKqJGRAWjAgbTA4AzbyAVuw1upJd7d7LZzxH0kG5qQl0/vdW4hjF+43d6aamhEt/wIwrmDnoFAZ3k/kG81/oQAAGQpJREFU7hPLnOH9uDKAKB/ea1U96e9t/vKWkhj1oXxTvNn4fvnemCkF6dsp3GjcTLFQvapgx6fQeb9V9az72/2mAnRDE8XN6naLz9/bzsY/wgTyi0I1/kAhCwAAQ6XiT4AuLeQ5KFzmr7H6pfuz7K4k6oOmDsWZ92W9heu51j+yVJdVDOxX0GH0ghYAL0+XHMRcU8hzUPj8a4WvZ96f9VoitJ6dqFjacoqzH8h6r69m4x9lYuTKfO76tyUFX5DT7rRfr5B1hT4PhctL7/t61v1ZL0qb2hAVWtbravxffD/OG0XHgaxtz7XfVOizFLwAWH3OkGajcm2hz0Ph8+J7vp7/UIfXwXsZ0Xa1e4rzHuzwnl3OX5jo09+sumhoS6HPUpQtOVzp+LVC1hfjXBQuTzR6eu4/O7xObl9CtFVtOcU5/8x6jzfyNZtRp5ANTtIrykNzUQqAhdMHbjCQ3xbjXBQ+jzd6esFD7X6W9zaiT1jfofjcvVnvqaV88o8DEf314rMHFOWBuWibcppk51XsBaCteXCJb790f5avLyX6iNXtFp+7p917dSUb/zhQyAYn4RVt4nzRCoDFZw9YL5BZxTofhc/zy309+e52b2Ub1zUTLW9VPXVu1ntjDWf7x4VAry7W0z9QxAIAAGzO/7UCTcU8J4XLgrVWT53b5i9tZhFA8bVgrdWT/97mc51/fChknZP0flPMcxa1AFh2ceUaAX5dzHNS+CzeoHrC39v55EOx9NQyT0++u93jDn/xYsReWcynf6DIBQAAZL32/6eQFcU+L4XLqjaL0+9p53pnipVb38zZM+/jXJi4UcjKNqej6BPli14ArLpoaIuB/rLY56Xw2dChOP2edu8Pb+T4klOKNAVw1Sud9ltPdPh8pW/8CPTHq88Z0lzs8xa9AACAigHls6BYHMS5KVw8C/zgqQ7/h8/wxkjR1JZTXPRQ1r/yJe6GEVNLUh3lvwvixIEUAP85TTph9CdBnJvC6abXc/bz/2j31rSza5SiY3GT6ol3t3v3LGR5G1ei8t/vXCIdQZw7kAIAABqrKv4owGtBnZ/C5/nlvp749zbv7XWcHEjh91CDb4+7q817k5NdY0ug8xoG9rs1qPMHVgDgNPGtxWWBnZ9CaUlT1wqBB5f4fGKiUPIV+PkLnf4597f7TR1s++NMVS7DaRLY0I8EdeKNauub71Dg+KBzULgIgC/vnjDf3T/ppJzAL2OiblndbvHVRzq8p5dxdUvsKe5onFHxhSAjBNcD8AEx/jcVGsj4B4WXomtewNS72r23OCRAIfDEUk8/89dsjo0/KTTrut53gs4ReAGw5LyqRUZNUXc/ouh4a63V4+5q9276D5cKUmnKeoofPdvhf+kfWW9lGy9TAgycKxedO2BJ0DlKou908I2rKtJe5nWBjgg6C4XXsTu45ucHp5z+qZK4rImwYK3Vrz6a9TnRjzZS6PIOL7v7qouGtgSdJfAeAABYfc6QZlE7M+gcFG7/WOTZY+9q4/gqBc6zwLWvdtpj7uQsf/o4891SaPyBEukBAADMVFM7ovkphUwMOgqF33E7uubHn0o5A9Klc4lTPMxfa/WKJzr8eXyFL32MCF5oOK98CkRK4tooiR4AAMBMsaK4DF3zu4j65J6Fnj3yjvbcPxZxgxUqjqyn+PkLnf7UO9s8Nv60BQpfv1UqjT9QSj0AH6iZ1XwLBKcGnYOi46g6x/xkStoMK5OSu94pGp57z9dvPZH1F23gG/xoK1T/3Dij8uygY3xU6fQAfCBR5n4b0Pagc1B0PLjEt0fd3ubd+mbOcjSW8un9VtWvPpL1T5vb7rHxp21oQcL5XtAhPq4kn4jq6pu+aSE//v/t3XmUXGWdxvHn996qXqt6yQJk6QXERAwiBEUSwRVkRIIOhKCokcakq5MgokZmznEhLnBUnMEBTLqzELfIEBUUyYyikLgMEAZico6BIFm6qjpLJzHd6apO0t1139/8EeYQlYTupLveureez9+EfE9O971P3ap7y3UHhc/ZtUZuv7jEe2ddpCB/9ikYjuQUKzcP2Hs3DPjZAZ736cQEWJhKxO9x3fH3CvMguEgjdeMyfwRkqusUCqfLGzxz+/QyUx/n2wI0eIqjd5vc8XSf7cjwFT+9NoE+m6qNX+rykb/HU7AHv4mLs+fB06cEiLpuoXAq8YC5byoxC86PerGSgv1VoAKxca+vX3mq33+ukx/wo0HLeTmZ3r4gttF1yKsp6KNefWv2ThVd6LqDwm1MucGtF0a9D0+OmhLPdQ0Vmi0HrP7bs332sXafHyGhIRGYO1OJykWuO46noAfAxH/XclOR3aCC17luofAbFxNpeXOJueENEcMvGKKt3VYXb+y3D7+Us3zNT0MlipdMaezC9iY54rrleAr+KDdxcead4uExBKCVwmF8TCTBIVC0dmZV7/tTv/3PLQM88dPJUgP8UzIRX+s65EQCcXSrb80sVcGNrjuouIyPidx8QYm5fnLURAvuhlkabpv/arVtU799dHvO8vFRdIqWphPxm11HvJZADICz2g5U9yOySSDjXbdQ8RlTbnD95Ii58dwoHyYUQs92+rpkY7/9bZLv8dOpU8juSMnAm9ubartdt7yWwBzMGpZmrrWKB1x3UPGKGuCKxoiZe17UXHAa3xsIspwFfp3M2dZNA5aP7aVhZfS69NyqX7jOGIxAHcTq2zI/VeBq1x1EF4/35KZzS8zlDZ7hFAiO3b2qD24ZsD/eMqB7enkfPw27h9KJ+IddRwxWoA5dDW294yz0OUDHuG4hAoAJMZHrJkXl2klR01DFtwcKka/A2rRvH3hhwD6Ryilf79NIUMjeqMGFO+bGOl23DFbgDlj1rb0zVOzPXHcQHUsAvGWcJ9dNipirzowYPljIvZ1Z1dUvDtgH+GqfRp4amGuSico1rkOGIpBHqbq2zGIAc1x3EL2asojg/Y2emTkpYqZPiAjfIsifvYcs1uzw7SNbc3ZDp8+zPuWFAEtSifinXXcMVSAPTePbtMLT7HoIJrtuITqRmlLBJRM8c1ljRN7X4JlYNJC/cgXtYJ/i8bRv12wb0LVpn7fwUX4ptvgSu3hXQg65ThmqwB6NGpb0XuAb/w8CKXHdQjQY5RHBpRONuaIxKu+p88zo8sD++jn3ly6ra9M5XZf27frdvvKkTy4otE/VXLKzJbbJdcvJCPQRqL6t5zaFfN11B9FQeQJMPd2TSyZ4cvE4z1xwmpEyfkPxcWUHFE/usnZtKqfr0jndmeXVfXJPILelErHvuO44WcE+4ixSUzcu+98A3u06hehUlHhHB8H0cZ5MG++Z808zUsyPIT5wRPFcp7X/u8fXZzt93bTX1wG+yqdCIvLb9K7Kq7BIAvuTGfgjTN2K3vHI6QZAR7luIRoupZ7gvLFGpow2cu5YI1NGezKp1kgYH0k8YI9+8c7m/VbX7/b1uU5ft3bzoXxUuBTSpcZcuHNuRYfrllMR+AEAAHVtPR8CZLXrDqKRFDXA5FFHx8C5Y428rlqkocrDuEqRSACGgQLYlVXdcsDHi11Wn99v9cUuq9u6Ld/Dp0Axgo8km+OBvx09FAMAAOpas8shOtt1B1G+RczRBxI1VHtoiIs0VovUV3kYUwYZVSYYVSZSXTryv+qHBhQH+6GdvRYdWdVUxqKjRzWdVe3IWKQzVvv9Ec8gGmnL04n4fNcRwyHiOmC4HPEP3VoWKX8rgHNctxDlU84CyR7VZE8OOPpC+x9EDFBbZjDqmFFQ5h19ZgFw9HZFACiLQEq8V/6cVSDbf/T/2ecrDueO/gVdRyy6+6BdfYquI4ruI9A+PmKPQk6AP/eV937edcdwCc0VAACYuPLg69HvPSnQatctREQUHgrpltLctPSNNdtctwyXALxzOHgdTdUvGZEmHOdVEBER0UlQMXZumE7+QMgGAACkmisfheJbrjuIiCgcRM0dQfmK36EI3QAAgPSe2O0i8mvXHUREFHAiv02NqrjDdcZICOUAwCKx1vifgKLddQoREQWUaspXOxuzJJT3r4RzAADomFN9wEKuA/Sw6xYiIgoWhR4x4s3alaja77plpIR2AADAzpbYJiMmFPdrEhFR/hjgU8lE5QbXHSMp1AMAAJLNsVVQLHPdQUREwSCKxalE1fddd4y00A8AACjtj31WBM+47iAiooL3VHxU7DbXEflQFANg6y3SZwZkJlRTrluIiKhAKdojRmZtniX9rlPyoSgGAAC0L4jt8UpxlUK6XLcQEVFhUchByeGfd8yNdbpuyZeiGQAA0N5UtUVUr1Non+sWIiIqDAoMeFavT90c3+y6JZ+KagAAQLol/ntRmQM+LpiIiAA1KonkvPgTrkPyregGAACkW+IPippQPtmJiIiG5KupltiPXEe4EKpvAxwSValbmlkByMdcpxARUf4J9MFUc3w2RIryinBRXgEAAIjoaYgnICi6yz5ERMVOgN+X9MXnFOvJHyjmKwAvO6vtQHVOoutUMcV1CxER5cUL4vvvSs2vKeq7wop+AADAmcu7Ggb86B8FerrrFiIiGjkK2VNS7l2yfXZ50T8XpnjfAjjGjjm1SQ/yQYUcdN1CREQjQyHdqpjBk/9RHAAvSyYqN6jvzwCQdd1CRETDTQ8Z2Gt2tsQ2uS4pFBwAx9g5v/ppYzFToUdctxAR0XDRw2rlQ6lE1R9dlxQSDoC/k5wXf0JgZvJpgUREwafAgIHe0DEvvs51S6HhAHgV6UTsMQE+DiDnuoWIiE6abwRNyUT1GtchhYgD4DjSiaqfi0gCgHXdQkREQ6YQXZBqjq92HVKoOABOINUc+yGAz7juICKiIVEIPp1urrrfdUgh4wB4DelEfIkAC113EBHR4BjoF9PN8VbXHYWOA2AQUon4PQJzp+sOIiI6MQPztWSi6i7XHUHAJwEOQUNbz+cthN8iSERUmO5KJ+JfcB0RFBwAQ1S3tGchVHg1gIiosHwlnYjzBdoQcACchPq2TLMC94BvoRARuaYiWJhqjt/rOiRoOABOUt2y7EdgdQWAiOsWIqIi5Qu0JZWo+r7rkCDiADgF9csyM63F9wWIum4hIiomCu33VGYnW+IPuW4JKg6AU9TQevBKK/IAIOWuW4iIioFC+4x6N6RaKn/puiXIOACGQV1r5h0QPAwg7rqFiCjkekVlZqol9rjrkKDjABgmda29b4Hoo4COct1CRBRGCun21H4w2VL1lOuWMOCn2IdJuqXyWQO5UiGdrluIiMJGIXsiObyPJ//hwysAw6xxZVej3xd5BII3uG4hIgqJ56Plkau3zy5PuQ4JE14BGGbtTbXtYv13imCd6xYiohBY65Xk3sWT//DjABgBqfk1XfGa2FWA/sh1CxFRYKn8oKo2NqO9qbbbdUoY8S2AkaQqDUsPfdHCfhH8tyYiGiw1MF9PNld8HSLqOiaseFLKg/ql2Y9btUsEUuK6hYiokCm03xOTSDbHVrluCTsOgDxpaMu824c8KNAa1y1ERIVIIV3wdVbH/PjvXLcUAw6APGpYljnHWjwCoMF1CxFRQVG0e6V6dXtT1RbXKcWCHwLMo+Tc+AteTi4VYL3rFiKiAvJUv+ISnvzziwMgz9oXxPakdsfeDeAu1y1ERAVgeVVt7PLOefG9rkOKDd8CcGhiW/YGgV0MSIXrFiKifFLoERHckm6u+p7rlmLFAeDYhNbsmw30JxA0um4hIsoL1TTgXZ9uqXzWdUox41sAju1siW2yOZ0mkMdctxARjTSB/Eoj+lae/N3jFYBCoSoNSzMLLeRr4DAjovBRAN9O7459CYvEuo4hDoCC09B28AM+vJV8XgARhYUCPWL0k+m5Vb9w3UKv4AAoQBOXHzzbWPMTVUxx3UJEdEoUL3qleh1v8Ss8vNRcgDrmVG89PHD4UlF8z3ULEdHJEsWK/orei3nyL0y8AlDg6tp6PgSYJYCOdt1CRDQYCuk2ojenmuOrXbfQ8XEABEDjd7Nn2CiWqeoVrluIiE5I8AQ8c1P6k5W7XKfQiXEABIWq1C/L3mxV7xRIqescIqJjKTDgwXwjubviDn7KPxg4AAKm/r7MFETxQwXOdd1CRAQAUGzxfJndviC20XUKDR4/BBgwqZvjm21v7O2A3oej99USEbmjuqq/oncaT/7BwysAAVbXln2fAssFeobrFiIqNrLPQJqTico1rkvo5PAKQIClE7HHPMjboHjUdQsRFQ9RPBwxmMqTf7DxCkBINCzNXGtV7gV0jOsWIgonhezxVG9NtsQfct1Cp45XAEIi2Rz/Wb/V86G6ynULEYWOQnUVPP98nvzDg1cAQqihNXONL/IdfjaAiE6VAH9RX+el51f9wXULDS9eAQihZEv8oRL0v+nlOwV81z1EFEg5AHeZkthbePIPJ14BCLmGJb0XWOMvAWSq6xYiCgjRjUa9lmSicoPrFBo5HABF4MI2je5H5lYLfAGQCtc9RFSwegW4PVUb+y5mCa8ehhwHQBGpW9E7HgP+HRD5qOsWIiooCuChaHnkX7bPLk+5jqH84AAoQhOXZN5lPNytiimuW4jIMdHnzAA+l1xQ9aTrFMovDoBitUgj9eOz86zKlwVa7TqHiPJLFbs90a8ld8fv55f3FCcOgCJ35rLs6TmrtwNoAuC57iGikaXQI0a9u/sqMt/qnH1Gr+secocDgAAAZ67omZzLySIA17puIaKRYtZ4Jf2faW+qbXddQu5xANDfqG/NvhdGv6mK81y3ENEwEd2IHD7H+/npWBwA9I9Wq1fflfmYKr4EkXrXOUR0khTtAvlqak/lj/k+P/09DgA6rimrtSTblZntw3yZjxUmChLZb2DvlpL4ve1NcsR1DRUmDgB6Taf/YE9l2eGK+T7M5wVa47qHiI4rA6C1tK//m1tvGd3jOoYKGwcADdqYFfvilbnSFg4BooKTAdAqvv/t1PyaLtcxFAwcADRkxwyBhQKtdd1DVMR44qeTxgFAJ61xZVeN3x/5FCALAB3luoeoeMhfAb0vioH7tidGHXRdQ8HEAUCnrHGlltm+3pkQ/VcFJrnuIQorhezxIMs89N3DEz+dKg4AGj6L1DSMO/R+C3sbgGmuc4jCQhTbYLC45Ehs6dZbpM91D4UDBwCNiPolPW+Hkc8ocBUA47qHKIhEsE7U/EeyueK/IKKueyhcOABoRDUs6z7TWvMpADcBUuG6h6jQKbRfIL9Ua+/umFf9jOseCi8OAMqLM+7PjI3mkFCVFoGe5rqHqNAopNODLDVGl+6YG+t03UPhxwFAeTVltZZku7MzrMocQN8D/gxS0dMNBlju98ZXdXxWDruuoeLBgy85M2FpzySj8glAbgJ0tOseonxRyEGB/gQWi9Pz4n923UPFiQOAnDv9B3sqS/vKr4U1NyrwdvDnksJJBfgDVL6Xk8qHdiXkkOsgKm480FJBmbDs0MSIzX3EqsyFoNF1D9GpUugugaxCqX9/+saaba57iP4fBwAVpkVq6sb1XiZqP6oiVwOodJ1ENAQZqD4i1qxK7a18gl/FS4WIA4AKXuNKLdP+Q++1sB9T6AyBlLhuInoVPiDrRLHqsH/o5/sWnJZ1HUR0IhwAFCgT7usZ7ZXgGlWZCeAdADzXTVTUcoD8To39KUQf7phTfcB1ENFgcQBQYE1cfnCUyXlXqsi1Cv9yXhmgPPEhWC/AzzyR1bxnn4KKA4BCoXFlV40ORD+gVq9WwWUA4q6bKDwU6BHgNwr5ZQn61/CLeCgMOAAofFarV//XzMVq5EooZkDwBtdJFEg7ADxuYNbEait+s3mW9LsOIhpOHAAUemeu6Jns5+QKCN6rineAdxTQq8tCzO8F9nEbtb/qaKp+yXUQ0UjiAKCiMmW1lhzcn50mBpfB6GVQOR/8IGGx8gX6J6j3G4V9vGpU7Gm+yqdiwgFARW3sd/fGyr2Kt4nIdAudrrCX8sOEoeUDugnAk0bkf3xj1/JT+1TMOACIjvHyIJgGkekQvcgqLhJotesuGjqFdBvgGYGsV9Un+yqyT3fOPqPXdRdRoeAAIDqRRWoaJmQnq9WLFPI2EVxkFecIEHWdRq9QYMBAn1eVZ8Sz601Enmm/Mf4iRNR1G1Gh4gAgGqIL2zS6T7OvB2Sqip0KkalQnAcg5rqtSGQB/QsUL4iRDfB1gz0c38Cv0iUaGg4AomHS8EMdp729b4TRN6riHAjeCMWbwGcSnBSF9glkO4DnDczzEPu8WryQ2hPbwmfrE506DgCikaQqE5YfniA5/2zx9CyovE4UZ0P0LIWchSIfBwr0GOgOhWwDsBWi2zUn21Dpbe2YXb6Ll/CJRg4HAJFD9Yu7a1W8CcbYBoWZqDAToH4djIwT4HSrMkagYwEY161DZBWyz4juV6ATVndDvLTAdgjsTmtN0ivLdbQ31Xa7DiUqVhwARIVutXqN+3rH+kbHGIOxUNRaozWAqREr1RBbA9UaQCpUJAbRMqiWQ6USghJAqvSYASGwZYCU/+1foocV5sgr/w0soD1Q9EO0VyCHFNInqllAD0GkG2q61ehBWNulBt2eSre12OdZ2d++r3IvL9MTFbb/A2YxrMR/DUH2AAAAAElFTkSuQmCC;" parent="1" vertex="1">
          <mxGeometry x="340" y="295" width="30" height="30" as="geometry" />
        </mxCell>
        <mxCell id="pha9NR9HZwjInYKIv3SI-88" value="" style="endArrow=classic;html=1;rounded=0;" parent="1" edge="1">
          <mxGeometry width="50" height="50" relative="1" as="geometry">
            <mxPoint x="210" y="340" as="sourcePoint" />
            <mxPoint x="510" y="340" as="targetPoint" />
          </mxGeometry>
        </mxCell>
        <mxCell id="pha9NR9HZwjInYKIv3SI-89" value="" style="endArrow=classic;html=1;rounded=0;" parent="1" edge="1">
          <mxGeometry width="50" height="50" relative="1" as="geometry">
            <mxPoint x="510" y="380" as="sourcePoint" />
            <mxPoint x="210" y="380" as="targetPoint" />
          </mxGeometry>
        </mxCell>
        <mxCell id="pha9NR9HZwjInYKIv3SI-90" value="$aws/things/&lt;span style=&quot;background-color: rgb(230 , 230 , 230)&quot;&gt;&lt;i&gt;thingName&lt;/i&gt;&lt;/span&gt;/jobs/$next/get" style="text;html=1;strokeColor=none;fillColor=none;align=center;verticalAlign=middle;whiteSpace=wrap;rounded=0;" parent="1" vertex="1">
          <mxGeometry x="210" y="340" width="300" height="20" as="geometry" />
        </mxCell>
        <mxCell id="pha9NR9HZwjInYKIv3SI-91" value="$aws/things/&lt;span style=&quot;background-color: rgb(230 , 230 , 230)&quot;&gt;&lt;i&gt;thingName&lt;/i&gt;&lt;/span&gt;/jobs/&lt;span style=&quot;background-color: rgb(230 , 230 , 230)&quot;&gt;&lt;i&gt;jobId&lt;/i&gt;&lt;/span&gt;/get/accepted" style="text;html=1;strokeColor=none;fillColor=none;align=center;verticalAlign=middle;whiteSpace=wrap;rounded=0;" parent="1" vertex="1">
          <mxGeometry x="210" y="360" width="300" height="20" as="geometry" />
        </mxCell>
        <mxCell id="pha9NR9HZwjInYKIv3SI-92" value="IN_PROGRESS" style="text;html=1;strokeColor=none;fillColor=none;align=center;verticalAlign=middle;whiteSpace=wrap;rounded=0;labelBackgroundColor=#FFFFFF;" parent="1" vertex="1">
          <mxGeometry x="210" y="380" width="300" height="20" as="geometry" />
        </mxCell>
        <mxCell id="pha9NR9HZwjInYKIv3SI-94" value="Restart" style="text;html=1;strokeColor=none;fillColor=none;align=center;verticalAlign=middle;whiteSpace=wrap;rounded=0;labelBackgroundColor=#FFFFFF;" parent="1" vertex="1">
          <mxGeometry x="290" y="295" width="50" height="30" as="geometry" />
        </mxCell>
        <mxCell id="1ImCkSmWqD6KQQyNIgND-6" value="CSR" style="outlineConnect=0;dashed=0;verticalLabelPosition=bottom;verticalAlign=top;align=center;html=1;shape=mxgraph.aws3.certificate_manager_2;fillColor=#759C3E;gradientColor=none;strokeColor=#000000;" parent="1" vertex="1">
          <mxGeometry x="150" y="197" width="40" height="33" as="geometry" />
        </mxCell>
        <mxCell id="1ImCkSmWqD6KQQyNIgND-17" value="" style="outlineConnect=0;dashed=0;verticalLabelPosition=bottom;verticalAlign=top;align=center;html=1;shape=mxgraph.aws3.certificate_manager_2;fillColor=#759C3E;gradientColor=none;strokeColor=#000000;" parent="1" vertex="1">
          <mxGeometry x="480" y="190" width="30" height="20" as="geometry" />
        </mxCell>
        <mxCell id="1ImCkSmWqD6KQQyNIgND-18" value="" style="sketch=0;outlineConnect=0;fontColor=#232F3E;gradientColor=none;fillColor=#3F8624;strokeColor=none;dashed=0;verticalLabelPosition=bottom;verticalAlign=top;align=center;html=1;fontSize=12;fontStyle=0;aspect=fixed;pointerEvents=1;shape=mxgraph.aws4.certificate_manager;" parent="1" vertex="1">
          <mxGeometry x="210" y="270" width="22.69" height="30" as="geometry" />
        </mxCell>
        <mxCell id="1ImCkSmWqD6KQQyNIgND-19" value="Old" style="sketch=0;pointerEvents=1;shadow=0;dashed=0;html=1;strokeColor=none;fillColor=#759C3E;aspect=fixed;labelPosition=center;verticalLabelPosition=bottom;verticalAlign=top;align=center;outlineConnect=0;shape=mxgraph.vvd.tenant_key;" parent="1" vertex="1">
          <mxGeometry x="58.04" y="197" width="16.83" height="33" as="geometry" />
        </mxCell>
        <mxCell id="A5goIySiUKO01Ep0x6ss-28" value="New&lt;br&gt;Certificate" style="sketch=0;outlineConnect=0;fontColor=#232F3E;gradientColor=none;fillColor=#3F8624;strokeColor=none;dashed=0;verticalLabelPosition=bottom;verticalAlign=top;align=center;html=1;fontSize=12;fontStyle=0;aspect=fixed;pointerEvents=1;shape=mxgraph.aws4.certificate_manager;" parent="1" vertex="1">
          <mxGeometry x="130" y="260" width="30.26" height="40" as="geometry" />
        </mxCell>
        <mxCell id="A5goIySiUKO01Ep0x6ss-29" value="Old&lt;br&gt;Certificate" style="sketch=0;outlineConnect=0;fontColor=#232F3E;gradientColor=none;fillColor=#3F8624;strokeColor=none;dashed=0;verticalLabelPosition=bottom;verticalAlign=top;align=center;html=1;fontSize=12;fontStyle=0;aspect=fixed;pointerEvents=1;shape=mxgraph.aws4.certificate_manager;" parent="1" vertex="1">
          <mxGeometry x="70" y="260" width="30.26" height="40" as="geometry" />
        </mxCell>
        <mxCell id="A5goIySiUKO01Ep0x6ss-32" value="New&lt;br&gt;Certificate" style="sketch=0;outlineConnect=0;fontColor=#232F3E;gradientColor=none;fillColor=#3F8624;strokeColor=none;dashed=0;verticalLabelPosition=bottom;verticalAlign=top;align=center;html=1;fontSize=12;fontStyle=0;aspect=fixed;pointerEvents=1;shape=mxgraph.aws4.certificate_manager;" parent="1" vertex="1">
          <mxGeometry x="134.87" y="550" width="30.26" height="40" as="geometry" />
        </mxCell>
        <mxCell id="A5goIySiUKO01Ep0x6ss-33" value="Old&lt;br&gt;Certificate" style="sketch=0;outlineConnect=0;fontColor=#232F3E;gradientColor=none;fillColor=#3F8624;strokeColor=none;dashed=0;verticalLabelPosition=bottom;verticalAlign=top;align=center;html=1;fontSize=12;fontStyle=0;aspect=fixed;pointerEvents=1;shape=mxgraph.aws4.certificate_manager;" parent="1" vertex="1">
          <mxGeometry x="74.87" y="550" width="30.26" height="40" as="geometry" />
        </mxCell>
        <mxCell id="A5goIySiUKO01Ep0x6ss-34" value="" style="verticalLabelPosition=bottom;verticalAlign=top;html=1;shape=mxgraph.basic.x;fillColor=#FF0000;" parent="1" vertex="1">
          <mxGeometry x="76.13" y="555" width="29" height="30" as="geometry" />
        </mxCell>
        <mxCell id="tf7l-gR8tCdB97HarbUI-1" value="{&quot;jobId&quot;:jobId,&quot;csr&quot;:CSR}" style="text;html=1;strokeColor=none;fillColor=none;align=center;verticalAlign=middle;whiteSpace=wrap;rounded=0;" parent="1" vertex="1">
          <mxGeometry x="290" y="200" width="140" height="20" as="geometry" />
        </mxCell>
        <mxCell id="tf7l-gR8tCdB97HarbUI-5" value="{&quot;jobId&quot;:jobId}" style="text;html=1;strokeColor=none;fillColor=none;align=center;verticalAlign=middle;whiteSpace=wrap;rounded=0;" parent="1" vertex="1">
          <mxGeometry x="290" y="420" width="140" height="20" as="geometry" />
        </mxCell>
        <mxCell id="tf7l-gR8tCdB97HarbUI-6" value="{&quot;certificatePem&quot;:PEM}" style="text;html=1;strokeColor=none;fillColor=none;align=center;verticalAlign=middle;whiteSpace=wrap;rounded=0;" parent="1" vertex="1">
          <mxGeometry x="290" y="260" width="140" height="20" as="geometry" />
        </mxCell>
        <mxCell id="zQTBaEor3wBvaaN2kvit-1" value="New" style="sketch=0;pointerEvents=1;shadow=0;dashed=0;html=1;strokeColor=none;fillColor=#759C3E;aspect=fixed;labelPosition=center;verticalLabelPosition=bottom;verticalAlign=top;align=center;outlineConnect=0;shape=mxgraph.vvd.tenant_key;" parent="1" vertex="1">
          <mxGeometry x="105.13" y="197" width="16.83" height="33" as="geometry" />
        </mxCell>
        <mxCell id="zQTBaEor3wBvaaN2kvit-3" value="Old" style="sketch=0;pointerEvents=1;shadow=0;dashed=0;html=1;strokeColor=none;fillColor=#759C3E;aspect=fixed;labelPosition=center;verticalLabelPosition=bottom;verticalAlign=top;align=center;outlineConnect=0;shape=mxgraph.vvd.tenant_key;" parent="1" vertex="1">
          <mxGeometry x="88.03999999999999" y="490" width="16.83" height="33" as="geometry" />
        </mxCell>
        <mxCell id="zQTBaEor3wBvaaN2kvit-4" value="New" style="sketch=0;pointerEvents=1;shadow=0;dashed=0;html=1;strokeColor=none;fillColor=#759C3E;aspect=fixed;labelPosition=center;verticalLabelPosition=bottom;verticalAlign=top;align=center;outlineConnect=0;shape=mxgraph.vvd.tenant_key;" parent="1" vertex="1">
          <mxGeometry x="135.13000000000002" y="490" width="16.83" height="33" as="geometry" />
        </mxCell>
        <mxCell id="zQTBaEor3wBvaaN2kvit-6" value="" style="verticalLabelPosition=bottom;verticalAlign=top;html=1;shape=mxgraph.basic.x;fillColor=#FF0000;" parent="1" vertex="1">
          <mxGeometry x="81.95" y="493" width="29" height="30" as="geometry" />
        </mxCell>
      </root>
    </mxGraphModel>
  </diagram>
</mxfile>
